<svg width="350" height="350" viewBox="0 0 350 350" fill="none" xmlns="http://www.w3.org/2000/svg">
<path d="M286.327 169.598C224.44 133.868 124.429 133.868 62.9447 169.599C1.45674 205.333 1.78224 263.262 63.6692 298.993C125.56 334.725 225.571 334.725 287.059 298.991C348.543 263.261 348.218 205.33 286.327 169.598Z" fill="#F5F5F5"/>
<path d="M152.204 307.921C155.367 306.095 160.478 306.095 163.619 307.921C166.762 309.747 166.745 312.708 163.582 314.533C160.42 316.359 155.309 316.359 152.167 314.533C149.025 312.708 149.042 309.747 152.204 307.921Z" fill="#E0E0E0"/>
<path d="M167.567 297.575C169.891 296.234 173.645 296.234 175.954 297.575C178.263 298.917 178.25 301.092 175.927 302.433C173.603 303.775 169.849 303.775 167.54 302.433C165.231 301.092 165.243 298.917 167.567 297.575Z" fill="#E0E0E0"/>
<path d="M216.913 194.331C220.832 192.069 227.164 192.069 231.057 194.331C234.95 196.593 234.929 200.261 231.011 202.524C227.092 204.786 220.76 204.786 216.867 202.524C212.974 200.262 212.995 196.594 216.913 194.331Z" fill="#E0E0E0"/>
<path d="M46.8235 243.9L105.653 278.088L217.441 213.518L158.611 179.33L46.8235 243.9Z" fill="#E0E0E0"/>
<path d="M104.93 289.46C115.246 283.504 131.919 283.504 142.169 289.46C152.419 295.417 152.365 305.074 142.048 311.03C131.731 316.987 115.058 316.987 104.808 311.03C94.5579 305.073 94.6125 295.416 104.93 289.46Z" fill="#E0E0E0"/>
<path d="M244.657 223.994C259.228 215.582 282.776 215.582 297.253 223.995C311.731 232.408 311.654 246.049 297.083 254.461C282.51 262.875 258.962 262.875 244.485 254.461C230.008 246.048 230.085 232.408 244.657 223.994Z" fill="#E0E0E0"/>
<path d="M52.9682 196.459C65.3127 189.332 85.2613 189.332 97.5253 196.459C109.79 203.587 109.725 215.142 97.3811 222.269C85.0359 229.397 65.0873 229.397 52.8226 222.269C40.5579 215.142 40.623 203.587 52.9682 196.459Z" fill="#E0E0E0"/>
<path d="M214.475 181.313L223.962 181.59L233.45 181.313C233.858 187.721 232.607 194.249 230.883 197.439L230.876 197.438C230.567 198.138 229.946 198.802 228.998 199.349C226.198 200.965 221.674 200.965 218.893 199.349C217.928 198.789 217.309 198.106 217.016 197.388C215.306 194.182 214.069 187.688 214.475 181.313Z" fill="white"/>
<path d="M217.276 177.428C213.559 179.574 213.539 183.053 217.232 185.199C220.925 187.346 226.932 187.346 230.649 185.199C234.366 183.053 234.385 179.574 230.692 177.428C227 175.282 220.993 175.282 217.276 177.428Z" fill="#EBEBEB"/>
<path d="M218.745 178.282C215.845 179.957 215.83 182.671 218.711 184.346C221.592 186.02 226.279 186.02 229.179 184.346C232.079 182.671 232.094 179.957 229.212 178.282C226.332 176.608 221.645 176.608 218.745 178.282Z" fill="#E0E0E0"/>
<g opacity="0.15">
<path d="M218.745 178.282C215.845 179.957 215.83 182.671 218.711 184.346C221.592 186.02 226.279 186.02 229.179 184.346C232.079 182.671 232.094 179.957 229.212 178.282C226.332 176.608 221.645 176.608 218.745 178.282Z" fill="black"/>
</g>
<path d="M208.364 140.83C229.744 147.831 229.937 162.134 225.117 172.319C223.902 174.381 220.223 175.488 217.021 162.821L222.637 163.54L216.092 160.223L214.393 155.142L219.849 155.547L212.923 152.634C210.372 144.916 208.364 140.83 208.364 140.83Z" fill="#FFC253"/>
<path opacity="0.2" d="M208.364 140.83C229.744 147.831 229.937 162.134 225.117 172.319C223.902 174.381 220.223 175.488 217.021 162.821L222.637 163.54L216.092 160.223L214.393 155.142L219.849 155.547L212.923 152.634C210.372 144.916 208.364 140.83 208.364 140.83Z" fill="black"/>
<path d="M214.411 144.407C225.686 152.965 226.704 162.775 223.519 173.017C224.645 163.998 225.863 154.879 214.411 144.407Z" fill="white"/>
<path d="M244.576 155.359C223.501 158.327 220.945 171.615 223.741 181.902C224.531 184.024 227.772 185.667 232.859 174.401L227.51 174.138L234.156 172.136L236.583 167.686L231.434 167.157L238.368 165.595C242.027 158.831 244.576 155.359 244.576 155.359Z" fill="#FFC253"/>
<path opacity="0.2" d="M244.576 155.359C223.501 158.327 220.945 171.615 223.741 181.902C224.531 184.024 227.772 185.667 232.859 174.401L227.51 174.138L234.156 172.136L236.583 167.686L231.434 167.157L238.368 165.595C242.027 158.831 244.576 155.359 244.576 155.359Z" fill="white"/>
<path d="M238.35 157.686C226.428 163.782 223.85 172.75 225.114 182.817C225.564 174.231 225.945 165.536 238.35 157.686Z" fill="white"/>
<path d="M202.196 160.339C221.523 160.655 225.315 172.346 223.945 181.93C223.472 183.932 220.733 185.775 214.887 176.19L219.68 175.355L213.466 174.295L210.78 170.555L215.361 169.502L208.937 168.87C204.882 163.182 202.196 160.339 202.196 160.339Z" fill="#FFC253"/>
<path d="M208.067 161.739C219.495 165.899 222.822 173.693 222.809 182.909C221.444 175.22 220.127 167.426 208.067 161.739Z" fill="white"/>
<path d="M215.715 27.9449L212.034 25.8428L211.804 106.308L211.813 106.313L241.485 123.256L241.497 119.041L241.716 42.7912L215.715 27.9449Z" fill="#F0F0F0"/>
<path opacity="0.1" d="M215.496 104.195L215.715 27.9449L212.034 25.8428L211.804 106.308L211.813 106.313L215.51 104.203L215.496 104.195Z" fill="black"/>
<path opacity="0.2" d="M241.497 119.041L215.51 104.203L211.813 106.313L241.485 123.256L241.497 119.041Z" fill="black"/>
<path d="M256.318 51.1273L252.638 49.0259L252.407 129.491L252.417 129.496L282.089 146.439L282.101 142.225L282.32 65.9736L256.318 51.1273Z" fill="#F0F0F0"/>
<path opacity="0.1" d="M256.1 127.378L256.318 51.1273L252.638 49.0259L252.407 129.491L252.417 129.496L256.113 127.386L256.1 127.378Z" fill="black"/>
<path opacity="0.2" d="M282.101 142.224L256.113 127.386L252.417 129.496L282.089 146.439L282.101 142.224Z" fill="black"/>
<path d="M297.849 74.8636L294.169 72.7622L293.938 153.227L293.948 153.233L323.62 170.175L323.632 165.96L323.85 89.7099L297.849 74.8636Z" fill="#F0F0F0"/>
<path opacity="0.1" d="M297.631 151.114L297.849 74.8636L294.169 72.7622L293.938 153.227L293.948 153.233L297.644 151.122L297.631 151.114Z" fill="black"/>
<path opacity="0.2" d="M323.632 165.96L297.644 151.122L293.948 153.233L323.62 170.175L323.632 165.96Z" fill="black"/>
<path d="M185.549 74.7255L156.376 57.7715L119.099 79.2937L119.323 158.616L148.497 175.57L185.774 154.048L185.549 74.7255Z" fill="#FFC253"/>
<path opacity="0.1" d="M185.549 74.7255L156.376 57.7715L119.099 79.2937L119.323 158.616L148.497 175.57L185.774 154.048L185.549 74.7255Z" fill="black"/>
<path d="M172.096 146.391L163.866 151.142L172.096 146.391Z" fill="#FFC253"/>
<path d="M163.866 95.902L172.096 91.1504L163.866 95.902Z" fill="#FFC253"/>
<path d="M153.59 119.695L182.474 103.019L182.418 83.3633L153.534 100.039L153.59 119.695ZM172.103 93.2571L163.873 98.0087L163.866 95.9017L172.096 91.1501L172.103 93.2571Z" fill="#FFC253"/>
<path d="M163.866 95.902L163.873 98.009L172.103 93.2574L172.096 91.1504L163.866 95.902Z" fill="#FFC253"/>
<path d="M153.59 119.695L153.534 100.04L152.553 99.4692L152.609 119.125L153.59 119.695Z" fill="#E6E6E6"/>
<path d="M182.418 83.3628L181.437 82.793L152.553 99.4691L153.534 100.04L182.418 83.3628Z" fill="#FFC253"/>
<path opacity="0.1" d="M163.866 95.902L163.873 98.009L172.103 93.2574L172.096 91.1504L163.866 95.902Z" fill="black"/>
<path d="M163.866 119.96L163.873 122.067L172.103 117.315L172.096 115.208L163.866 119.96Z" fill="#FFC253"/>
<path d="M153.534 124.097L153.59 143.753L182.475 127.076L182.419 107.42L153.534 124.097ZM172.103 117.315L163.873 122.067L163.866 119.96L172.096 115.208L172.103 117.315Z" fill="#FFC253"/>
<path d="M152.553 123.527L152.609 143.183L153.59 143.752L153.534 124.097L152.553 123.527Z" fill="#E6E6E6"/>
<path d="M182.418 107.421L181.437 106.851L152.553 123.527L153.534 124.097L182.418 107.421Z" fill="#FFC253"/>
<path opacity="0.1" d="M163.866 119.96L163.873 122.067L172.103 117.315L172.096 115.208L163.866 119.96Z" fill="black"/>
<path d="M163.866 143.709L163.873 145.816L172.103 141.065L172.096 138.964V138.958L163.866 143.709Z" fill="#FFC253"/>
<path opacity="0.1" d="M163.866 143.709L163.873 145.816L172.103 141.065L172.096 138.964V138.958L163.866 143.709Z" fill="black"/>
<path d="M153.534 147.847L153.59 167.502L182.475 150.826L182.419 131.17L153.534 147.847ZM172.103 141.064L163.873 145.816L163.866 143.709L172.096 138.957V138.964L172.103 141.064Z" fill="#FFC253"/>
<path d="M152.553 147.277L152.609 166.932L153.59 167.502L153.534 147.847L152.553 147.277Z" fill="#E6E6E6"/>
<path d="M182.418 131.171L181.437 130.6L152.553 147.277L153.534 147.847L182.418 131.171Z" fill="#FFC253"/>
<g opacity="0.1">
<path d="M148.497 175.569L119.323 158.616L119.099 79.2935L148.272 96.2475L148.497 175.569Z" fill="black"/>
</g>
<g opacity="0.2">
<path d="M148.272 96.2477L119.099 79.2937L156.376 57.7715L185.549 74.7255L148.272 96.2477Z" fill="white"/>
</g>
<path opacity="0.4" d="M185.549 74.7255L156.376 57.7715L119.099 79.2937L119.323 158.616L148.497 175.57L185.774 154.048L185.549 74.7255Z" fill="white"/>
<path d="M68.6631 63.0945L68.7121 80.6092L70.8352 81.8426L70.7785 61.873L68.6631 63.0945Z" fill="#F0F0F0"/>
<path d="M45.7969 93.8394L45.8039 96.2943L70.8352 81.8428L68.7121 80.6094L45.7969 93.8394Z" fill="#F5F5F5"/>
<path d="M73.3347 57.4492L43.1738 74.8631L43.2473 100.723L73.4089 83.3086L73.3347 57.4492ZM45.8037 96.2943L45.7967 93.8394L45.747 76.3254L68.6622 63.0954L70.7776 61.8739L70.8343 81.8428L45.8037 96.2943Z" fill="#FFC253"/>
<path d="M73.3348 57.4492L71.2124 56.2158L41.0515 73.6297L43.1739 74.8631L73.3348 57.4492Z" fill="#F5F5F5"/>
<path d="M41.0515 73.6299L41.1243 99.4893L43.2474 100.723L43.1739 74.8633L41.0515 73.6299Z" fill="#F0F0F0"/>
<path d="M61.3817 69.7446L67.6313 74.6649L67.6446 79.4725L46.8588 91.4733L46.8455 86.6657L50.8068 78.7984L54.3635 81.5599L53.1063 85.4673L54.9312 81.9974L61.3817 69.7446Z" fill="#FFC253"/>
<path d="M54.5545 72.1673C55.5324 71.6024 56.329 72.056 56.3318 73.1802C56.3353 74.3044 55.5443 75.6736 54.5664 76.2385C53.5885 76.8034 52.7919 76.3498 52.7891 75.2256C52.7856 74.1021 53.5759 72.7322 54.5545 72.1673Z" fill="#FFC253"/>
<path d="M107.7 40.5579L107.75 58.0719L109.872 59.306L109.815 39.3364L107.7 40.5579Z" fill="#F0F0F0"/>
<path d="M84.8337 71.303L84.8407 73.7579L109.872 59.3064L107.75 58.0723L84.8337 71.303Z" fill="#F5F5F5"/>
<path d="M112.372 34.9126L82.2107 52.3265L82.2842 78.1859L112.445 60.772L112.372 34.9126ZM84.8406 73.7577L84.8336 71.3028L84.7839 53.7888L107.699 40.5588L109.814 39.3373L109.871 59.3062L84.8406 73.7577Z" fill="#FFC253"/>
<path d="M112.372 34.9126L110.249 33.6792L80.0884 51.0931L82.2108 52.3265L112.372 34.9126Z" fill="#F5F5F5"/>
<path d="M80.0884 51.0933L80.1612 76.9527L82.2843 78.1861L82.2108 52.3267L80.0884 51.0933Z" fill="#F0F0F0"/>
<path d="M100.419 47.208L106.668 52.1283L106.682 56.9359L85.8963 68.9367L85.8823 64.1291L89.8436 56.2618L93.4003 59.0226L92.1431 62.93L93.968 59.4608L100.419 47.208Z" fill="#FFC253"/>
<path d="M93.5913 49.6307C94.5699 49.0658 95.3658 49.5194 95.3686 50.6436C95.3714 51.7678 94.5811 53.137 93.6025 53.7019C92.6246 54.2668 91.8287 53.8132 91.8252 52.689C91.8224 51.5655 92.6127 50.1956 93.5913 49.6307Z" fill="#FFC253"/>
<path d="M49.4186 173.534L63.1232 180.476H82.6518L105.565 168.305C108.488 166.638 108.764 162.161 107.12 159.662C106.755 159.108 106.298 158.649 105.753 158.342L103.062 156.96C103.059 147.375 104.476 148.315 107.12 144.556C109.763 140.796 105.712 138.457 102.663 140.128C102.663 140.128 85.6191 145.14 81.1076 140.712C75.4999 135.208 77.8491 121.329 78.5176 115.898C79.1861 110.468 78.5176 106.708 77.014 105.121C75.5104 103.533 73.3383 101.194 66.2795 104.118C66.2795 104.118 47.2563 112.36 37.9435 116.96C35.7707 117.419 33.7253 118.428 32.0782 119.94C31.6372 120.345 31.2158 120.797 31.0009 121.356C30.786 121.914 30.8168 122.602 31.2137 123.05C31.4909 123.365 31.9116 123.52 32.3309 123.553L44.0846 166.975C44.8511 169.82 46.7908 172.204 49.4186 173.534ZM72.7874 117.567C72.6495 116.526 72.4689 115.499 72.2526 114.497C72.4689 115.499 72.6495 116.525 72.7874 117.567ZM71.7066 112.314C71.1375 110.369 70.3899 108.6 69.447 107.162C70.3906 108.601 71.1375 110.368 71.7066 112.314Z" fill="#37474F"/>
<path d="M60.0097 198.701L58.8225 196.667L60.3632 195.689L60.366 195.693C60.7986 195.425 61.4041 195.448 62.0768 195.836C63.3844 196.591 64.4428 198.422 64.4386 199.924C64.4365 200.698 64.1516 201.228 63.7001 201.464L63.7022 201.467L62.1881 202.432L60.9379 200.29C60.5473 199.821 60.2274 199.273 60.0097 198.701Z" fill="#37474F"/>
<path d="M60.5354 196.815C59.2278 196.06 58.1624 196.664 58.1582 198.167C58.154 199.672 59.2124 201.503 60.52 202.258C61.8276 203.013 62.893 202.408 62.8972 200.903C62.9014 199.4 61.843 197.569 60.5354 196.815Z" fill="#455A64"/>
<path d="M85.8838 198.121L87.0717 196.087L85.531 195.109L85.5289 195.114C85.0956 194.845 84.4908 194.869 83.8181 195.256C82.5105 196.012 81.4521 197.842 81.4563 199.344C81.4584 200.118 81.7433 200.648 82.1948 200.884L82.1927 200.887L83.7068 201.852L84.957 199.71C85.3462 199.241 85.6661 198.693 85.8838 198.121Z" fill="#37474F"/>
<path d="M85.3582 196.235C86.6658 195.48 87.7311 196.085 87.7353 197.587C87.7395 199.092 86.6811 200.924 85.3735 201.678C84.0659 202.433 83.0006 201.829 82.9964 200.324C82.9922 198.821 84.0506 196.99 85.3582 196.235Z" fill="#455A64"/>
<path d="M77.3963 193.085H73.0017V200.659C73.0038 200.984 73.2208 201.311 73.6506 201.559C74.5109 202.056 75.9025 202.057 76.7572 201.56C77.1856 201.311 77.3977 200.985 77.3956 200.659L77.3963 193.085Z" fill="#EBEBEB"/>
<path d="M61.4832 195.207V197.013L73.0017 199.917V196.094L61.4832 195.207Z" fill="#E0E0E0"/>
<path d="M61.4832 195.207L62.2868 194.935L73.0017 195.499V196.094L61.4832 195.207Z" fill="#F5F5F5"/>
<path d="M60.3288 211.576L61.516 209.542L59.9753 208.564L59.9725 208.568C59.5392 208.299 58.9344 208.323 58.2617 208.711C56.9541 209.467 55.8957 211.297 55.8999 212.799C55.902 213.572 56.1869 214.103 56.6384 214.339L56.6363 214.342L58.1504 215.307L59.4006 213.165C59.7905 212.695 60.1111 212.147 60.3288 211.576Z" fill="#37474F"/>
<path d="M59.8032 209.689C61.1108 208.935 62.1762 209.539 62.1804 211.042C62.1846 212.547 61.1262 214.378 59.8186 215.132C58.511 215.887 57.4456 215.283 57.4414 213.778C57.4372 212.275 58.4956 210.444 59.8032 209.689Z" fill="#455A64"/>
<path d="M75.6657 216.736L74.4778 214.702L76.0185 213.724L76.0206 213.728C76.4539 213.459 77.0587 213.482 77.7314 213.871C79.039 214.626 80.0974 216.456 80.0932 217.959C80.0911 218.731 79.8062 219.262 79.3547 219.498L79.3568 219.501L77.8427 220.466L76.5925 218.324C76.2033 217.855 75.8834 217.307 75.6657 216.736Z" fill="#37474F"/>
<path d="M76.1914 214.849C74.8838 214.095 73.8184 214.699 73.8142 216.202C73.81 217.707 74.8684 219.537 76.176 220.293C77.4836 221.048 78.549 220.443 78.5532 218.938C78.5574 217.434 77.499 215.604 76.1914 214.849Z" fill="#455A64"/>
<path d="M92.2929 208.76L91.105 206.726L92.6457 205.748L92.6478 205.752C93.0811 205.484 93.6859 205.507 94.3593 205.896C95.6669 206.65 96.7253 208.481 96.7211 209.984C96.719 210.757 96.4341 211.287 95.9826 211.523L95.9847 211.526L94.4706 212.491L93.2204 210.349C92.8305 209.879 92.5106 209.331 92.2929 208.76Z" fill="#37474F"/>
<path d="M92.8186 206.874C91.511 206.118 90.4456 206.723 90.4414 208.226C90.4372 209.731 91.4956 211.562 92.8032 212.317C94.1108 213.072 95.1762 212.467 95.1804 210.962C95.1846 209.459 94.1262 207.628 92.8186 206.874Z" fill="#455A64"/>
<path d="M58.7153 207.175V210.099L74.1384 201.766V197.734L58.7153 207.175Z" fill="#E0E0E0"/>
<path d="M57.8235 206.673L73.2522 197.508L74.1384 197.734L58.7153 207.175L57.8235 206.673Z" fill="#F5F5F5"/>
<path d="M57.8235 209.598L58.7153 210.099V207.175L57.8235 206.673V209.598Z" fill="#F0F0F0"/>
<path d="M75.1743 197.734L77.0538 212.642V215.306L75.1743 201.931V197.734Z" fill="#E0E0E0"/>
<path d="M78.1404 212.642H77.054V215.307H78.1404V212.642Z" fill="#F0F0F0"/>
<path d="M78.1402 212.642L76.4322 197.734H75.1743L77.0538 212.642H78.1402Z" fill="#F5F5F5"/>
<path d="M93.429 204.376V207.176L77.3962 200.659V197.233L93.429 204.376Z" fill="#E0E0E0"/>
<path d="M94.0506 206.762L93.429 207.175V204.376L94.0506 203.974V206.762Z" fill="#F0F0F0"/>
<path d="M91.5222 203.527L93.429 204.376L94.0506 203.974L77.3962 196.47V197.233L91.5222 203.527Z" fill="#F5F5F5"/>
<path d="M85.5134 193.682V195.515L80.8381 198.021L77.3962 196.47V195.718L85.5134 193.682Z" fill="#E0E0E0"/>
<path d="M85.5134 193.682L85.1424 193.534L77.3962 195.207V195.718L85.5134 193.682Z" fill="#F5F5F5"/>
<path d="M78.7942 179.583H71.6038V191.976C71.6073 192.508 71.9615 193.042 72.6657 193.448C74.0734 194.26 76.3505 194.262 77.7491 193.449C78.4498 193.042 78.7977 192.508 78.7942 191.976V179.583Z" fill="#E0E0E0"/>
<path d="M107.119 159.663C106.724 160.255 106.211 160.763 105.565 161.132L76.2606 176.698C74.2915 177.743 71.9367 177.766 69.9473 176.759L49.4184 166.362C46.7906 165.031 44.8509 162.648 44.0816 159.805L34.1773 123.213C34.0121 123.265 33.8469 123.319 33.6796 123.367C33.2575 123.486 32.8235 123.586 32.3853 123.563C32.3664 123.563 32.3475 123.558 32.3279 123.556L44.0816 166.978C44.8509 169.821 46.7906 172.204 49.4184 173.535L69.9473 183.932C71.9367 184.939 74.2915 184.916 76.2606 183.87L105.565 168.305C108.488 166.638 108.764 162.161 107.119 159.663Z" fill="#455A64"/>
<path opacity="0.2" d="M107.119 159.663C106.724 160.255 106.211 160.763 105.565 161.132L76.2606 176.698C74.2915 177.743 71.9367 177.766 69.9473 176.759L49.4184 166.362C46.7906 165.031 44.8509 162.648 44.0816 159.805L34.1773 123.213C34.0121 123.265 33.8469 123.319 33.6796 123.367C33.2575 123.486 32.8235 123.586 32.3853 123.563C32.3664 123.563 32.3475 123.558 32.3279 123.556L44.0816 166.978C44.8509 169.821 46.7906 172.204 49.4184 173.535L69.9473 183.932C71.9367 184.939 74.2915 184.916 76.2606 183.87L105.565 168.305C108.488 166.638 108.764 162.161 107.119 159.663Z" fill="black"/>
<path d="M105.752 158.341L84.5186 147.449L56.5564 161.834C57.4671 162.054 58.3904 162.238 59.3067 162.422C61.7112 162.905 64.1633 163.437 66.2514 164.722C68.3395 166.007 70.0286 168.206 70.0433 170.658L69.295 176.429L69.9467 176.759C71.9361 177.766 74.2909 177.744 76.26 176.698L105.564 161.132C106.21 160.763 106.723 160.255 107.119 159.663C106.755 159.109 106.298 158.649 105.752 158.341Z" fill="#455A64"/>
<path opacity="0.3" d="M105.752 158.341L84.5186 147.449L56.5564 161.834C57.4671 162.054 58.3904 162.238 59.3067 162.422C61.7112 162.905 64.1633 163.437 66.2514 164.722C68.3395 166.007 70.0286 168.206 70.0433 170.658L69.295 176.429L69.9467 176.759C71.9361 177.766 74.2909 177.744 76.26 176.698L105.564 161.132C106.21 160.763 106.723 160.255 107.119 159.663C106.755 159.109 106.298 158.649 105.752 158.341Z" fill="black"/>
<path d="M102.661 140.128C102.661 140.128 85.6177 145.141 81.1062 140.713C75.4985 135.208 77.8477 121.33 78.5162 115.899C79.1847 110.468 78.5162 106.709 77.0126 105.121C75.509 103.533 73.3369 101.195 66.2781 104.119C73.4202 107.794 74.3393 125.266 72.0832 132.279C77.6811 138.039 77.2968 146.966 77.4053 151.108C77.4053 151.108 91.9674 154.665 99.5701 158.842L102.661 140.128Z" fill="#455A64"/>
<path opacity="0.1" d="M102.661 140.128C102.661 140.128 85.6177 145.141 81.1062 140.713C75.4985 135.208 77.8477 121.33 78.5162 115.899C79.1847 110.468 78.5162 106.709 77.0126 105.121C75.509 103.533 73.3369 101.195 66.2781 104.119C73.4202 107.794 74.3393 125.266 72.0832 132.279C77.6811 138.039 77.2968 146.966 77.4053 151.108C77.4053 151.108 91.9674 154.665 99.5701 158.842L102.661 140.128Z" fill="white"/>
<path d="M99.57 158.843L103.061 156.961C103.058 147.376 104.476 148.316 107.12 144.556C109.763 140.796 105.711 138.457 102.661 140.128C99.612 141.799 98.3828 146.828 99.57 158.843Z" fill="#455A64"/>
<path opacity="0.2" d="M99.57 158.843L103.061 156.961C103.058 147.376 104.476 148.316 107.12 144.556C109.763 140.796 105.711 138.457 102.661 140.128C99.612 141.799 98.3828 146.828 99.57 158.843Z" fill="white"/>
<path d="M66.2773 104.119C66.2773 104.119 47.1855 112.39 37.8909 116.986L38.5671 120.377L69.0178 106.55C68.2303 105.497 67.3224 104.657 66.2773 104.119Z" fill="#455A64"/>
<path opacity="0.1" d="M66.2773 104.119C66.2773 104.119 47.1855 112.39 37.8909 116.986L38.5671 120.377L69.0178 106.55C68.2303 105.497 67.3224 104.657 66.2773 104.119Z" fill="white"/>
<path d="M72.0832 132.279C74.0089 126.292 73.6169 112.69 69.0186 106.549L38.5679 120.376L45.528 155.26L56.5572 161.833L77.406 151.108C77.2968 146.966 77.6804 138.04 72.0832 132.279Z" fill="#455A64"/>
<path opacity="0.1" d="M72.0832 132.279C74.0089 126.292 73.6169 112.69 69.0186 106.549L38.5679 120.376L45.528 155.26L56.5572 161.833L77.406 151.108C77.2968 146.966 77.6804 138.04 72.0832 132.279Z" fill="black"/>
<path d="M53.2371 139.274C53.7537 138.976 54.1744 139.214 54.1758 139.808C54.1772 140.402 53.7593 141.125 53.2434 141.423C52.7268 141.721 52.3061 141.482 52.3047 140.888C52.3026 140.295 52.7205 139.572 53.2371 139.274Z" fill="#455A64"/>
<path d="M57.9488 136.505C58.4654 136.207 58.8861 136.445 58.8875 137.038C58.8896 137.633 58.471 138.356 57.9551 138.654C57.4385 138.952 57.0178 138.713 57.0164 138.119C57.015 137.526 57.4329 136.803 57.9488 136.505Z" fill="#455A64"/>
<path d="M62.6612 133.735C63.1778 133.437 63.5985 133.676 63.5999 134.269C63.6013 134.864 63.1834 135.587 62.6675 135.885C62.1509 136.183 61.7302 135.945 61.7288 135.35C61.7274 134.757 62.1453 134.034 62.6612 133.735Z" fill="#455A64"/>
<path d="M67.3736 130.966C67.8902 130.668 68.3109 130.907 68.3123 131.5C68.3137 132.095 67.8958 132.818 67.3799 133.116C66.864 133.414 66.4433 133.176 66.4412 132.581C66.4391 131.988 66.8577 131.265 67.3736 130.966Z" fill="#455A64"/>
<g opacity="0.2">
<path d="M53.2371 139.274C53.7537 138.976 54.1744 139.214 54.1758 139.808C54.1772 140.402 53.7593 141.125 53.2434 141.423C52.7268 141.721 52.3061 141.482 52.3047 140.888C52.3026 140.295 52.7205 139.572 53.2371 139.274Z" fill="white"/>
<path d="M57.9488 136.505C58.4654 136.207 58.8861 136.445 58.8875 137.038C58.8896 137.633 58.471 138.356 57.9551 138.654C57.4385 138.952 57.0178 138.713 57.0164 138.119C57.015 137.526 57.4329 136.803 57.9488 136.505Z" fill="white"/>
<path d="M62.6612 133.735C63.1778 133.437 63.5985 133.676 63.5999 134.269C63.6013 134.864 63.1834 135.587 62.6675 135.885C62.1509 136.183 61.7302 135.945 61.7288 135.35C61.7274 134.757 62.1453 134.034 62.6612 133.735Z" fill="white"/>
<path d="M67.3736 130.966C67.8902 130.668 68.3109 130.907 68.3123 131.5C68.3137 132.095 67.8958 132.818 67.3799 133.116C66.864 133.414 66.4433 133.176 66.4412 132.581C66.4391 131.988 66.8577 131.265 67.3736 130.966Z" fill="white"/>
</g>
<path d="M66.2513 164.722C64.1632 163.437 61.7111 162.904 59.3067 162.422C58.3904 162.238 57.4677 162.055 56.5563 161.834C55.0765 161.475 53.6289 161.016 52.3003 160.282C48.9319 158.421 46.6717 154.944 45.5874 151.252C44.5031 147.56 44.4785 143.641 44.7081 139.8C44.9377 135.959 45.4124 132.122 45.2962 128.276C45.2283 126.039 44.8888 123.644 43.3754 121.995C41.8172 120.298 39.2944 119.769 37.011 120.077C36.2571 120.179 35.5228 120.364 34.8011 120.596L33.7896 121.778L34.1774 123.212L44.0816 159.804C44.7718 162.354 46.4084 164.527 48.633 165.91C48.8885 166.069 49.1476 166.224 49.4185 166.361L69.2949 176.429L70.0432 170.658C70.0285 168.206 68.3394 166.007 66.2513 164.722Z" fill="#455A64"/>
<path opacity="0.2" d="M66.2513 164.722C64.1632 163.437 61.7111 162.904 59.3067 162.422C58.3904 162.238 57.4677 162.055 56.5563 161.834C55.0765 161.475 53.6289 161.016 52.3003 160.282C48.9319 158.421 46.6717 154.944 45.5874 151.252C44.5031 147.56 44.4785 143.641 44.7081 139.8C44.9377 135.959 45.4124 132.122 45.2962 128.276C45.2283 126.039 44.8888 123.644 43.3754 121.995C41.8172 120.298 39.2944 119.769 37.011 120.077C36.2571 120.179 35.5228 120.364 34.8011 120.596L33.7896 121.778L34.1774 123.212L44.0816 159.804C44.7718 162.354 46.4084 164.527 48.633 165.91C48.8885 166.069 49.1476 166.224 49.4185 166.361L69.2949 176.429L70.0432 170.658C70.0285 168.206 68.3394 166.007 66.2513 164.722Z" fill="black"/>
<path d="M66.2773 160.789C59.0071 158.717 51.8643 158.447 49.2323 153.224C46.6003 148.002 46.4127 140.796 47.7287 128.264C47.8995 126.396 47.8407 124.794 47.6132 123.414C46.839 118.725 44.0166 116.72 40.7735 116.672C37.5822 116.624 34.4273 117.782 32.076 119.94C31.635 120.345 31.2136 120.798 30.9987 121.356C30.7838 121.915 30.8146 122.602 31.2115 123.051C31.4887 123.365 31.9094 123.521 32.3287 123.554C32.3476 123.555 32.3665 123.56 32.3861 123.561C32.8243 123.584 33.2583 123.484 33.6804 123.365C33.8477 123.318 34.0122 123.264 34.1781 123.211C35.0678 122.931 35.9414 122.598 36.8472 122.376C37.921 122.113 39.0732 122.018 40.119 122.378C41.1648 122.737 41.897 123.666 42.2204 124.723C45.2857 134.737 41.4007 145.495 44.8468 153.766C47.6664 161.286 57.4139 164.406 64.2893 166.637C63.625 166.325 62.9964 165.975 62.5729 165.388C61.8372 164.368 62.0108 162.848 62.8417 161.904C63.6719 160.961 65.0369 160.583 66.2773 160.789Z" fill="#455A64"/>
<path opacity="0.1" d="M66.2773 160.789C59.0071 158.717 51.8643 158.447 49.2323 153.224C46.6003 148.002 46.4127 140.796 47.7287 128.264C47.8995 126.396 47.8407 124.794 47.6132 123.414C46.839 118.725 44.0166 116.72 40.7735 116.672C37.5822 116.624 34.4273 117.782 32.076 119.94C31.635 120.345 31.2136 120.798 30.9987 121.356C30.7838 121.915 30.8146 122.602 31.2115 123.051C31.4887 123.365 31.9094 123.521 32.3287 123.554C32.3476 123.555 32.3665 123.56 32.3861 123.561C32.8243 123.584 33.2583 123.484 33.6804 123.365C33.8477 123.318 34.0122 123.264 34.1781 123.211C35.0678 122.931 35.9414 122.598 36.8472 122.376C37.921 122.113 39.0732 122.018 40.119 122.378C41.1648 122.737 41.897 123.666 42.2204 124.723C45.2857 134.737 41.4007 145.495 44.8468 153.766C47.6664 161.286 57.4139 164.406 64.2893 166.637C63.625 166.325 62.9964 165.975 62.5729 165.388C61.8372 164.368 62.0108 162.848 62.8417 161.904C63.6719 160.961 65.0369 160.583 66.2773 160.789Z" fill="white"/>
<path d="M71.3214 165.935C70.8657 164.762 70.2917 163.619 69.4608 162.676C68.6292 161.732 67.5183 160.997 66.2779 160.79C65.0375 160.583 63.6718 160.961 62.8416 161.905C62.0107 162.849 61.8378 164.369 62.5728 165.389C62.9963 165.976 63.6249 166.326 64.2892 166.638C64.8268 166.891 65.3882 167.119 65.8873 167.426C67.2684 168.274 68.1665 169.756 68.6341 171.307C69.1024 172.859 69.1871 174.497 69.269 176.115L69.2949 176.428L72.699 174.539C72.8635 171.651 72.3693 168.631 71.3214 165.935Z" fill="#455A64"/>
<path opacity="0.2" d="M71.3214 165.935C70.8657 164.762 70.2917 163.619 69.4608 162.676C68.6292 161.732 67.5183 160.997 66.2779 160.79C65.0375 160.583 63.6718 160.961 62.8416 161.905C62.0107 162.849 61.8378 164.369 62.5728 165.389C62.9963 165.976 63.6249 166.326 64.2892 166.638C64.8268 166.891 65.3882 167.119 65.8873 167.426C67.2684 168.274 68.1665 169.756 68.6341 171.307C69.1024 172.859 69.1871 174.497 69.269 176.115L69.2949 176.428L72.699 174.539C72.8635 171.651 72.3693 168.631 71.3214 165.935Z" fill="white"/>
<path d="M53.3918 188.594L53.4023 244.79L105.572 275.107L105.562 218.911L53.3918 188.594Z" fill="#0560FA"/>
<path d="M209.247 159.049L105.562 218.911L105.572 275.107L209.257 215.245L209.247 159.049Z" fill="#0560FA"/>
<path opacity="0.3" d="M209.247 159.049L105.562 218.911L53.3918 188.594L53.4023 244.789L105.572 275.107L209.257 215.245L209.247 159.049Z" fill="white"/>
<path opacity="0.1" d="M105.562 228.222L53.394 197.906L53.4024 244.789L105.572 275.107L105.564 228.221L105.562 228.222Z" fill="black"/>
<path opacity="0.3" d="M105.564 228.221L105.562 218.911L53.3918 188.594L53.3939 197.906L105.562 228.222L105.564 228.221Z" fill="black"/>
<path opacity="0.2" d="M209.248 168.359L209.247 159.049L105.562 218.911L105.564 228.221L209.248 168.359Z" fill="black"/>
<path d="M217.442 152.961L158.612 118.772L46.8237 183.343L46.8349 187.286L105.664 221.474L217.453 156.904L217.442 152.961Z" fill="#0560FA"/>
<path opacity="0.3" d="M217.442 152.961L158.612 118.772L46.8237 183.343L46.8349 187.286L105.664 221.474L217.453 156.904L217.442 152.961Z" fill="white"/>
<path opacity="0.2" d="M105.653 217.531L105.664 221.474L46.8349 187.286L46.8237 183.343L105.653 217.531Z" fill="black"/>
<path opacity="0.1" d="M217.442 152.96L217.453 156.904L105.664 221.474L105.653 217.531L217.442 152.96Z" fill="black"/>
<path d="M153.558 135.185L162.186 154.057L184.713 150.564L176.085 131.692L153.558 135.185Z" fill="#E6E6E6"/>
<path d="M145.096 138.839L164.6 154.748L183.613 146.909L164.114 131.004L145.096 138.839Z" fill="#F0F0F0"/>
<path d="M141.103 133.524L129.418 145.223L158.593 154.968L170.288 143.27L141.103 133.524Z" fill="white"/>
<path d="M158.479 165.395L134.863 151.671C133.528 150.895 131.36 150.895 130.017 151.671L91.0547 174.166C90.4149 174.536 90.0866 175.015 90.053 175.499L90.0425 175.5V176.998L90.0642 176.996C90.067 177.1 90.0628 177.204 90.0943 177.307C90.0971 177.318 90.0971 177.328 90.1006 177.338C90.1377 177.451 90.1958 177.561 90.2665 177.669C90.2742 177.681 90.2777 177.693 90.2861 177.705C90.3638 177.817 90.4632 177.925 90.578 178.03C90.585 178.036 90.5892 178.043 90.5955 178.048C90.7201 178.158 90.8643 178.262 91.0309 178.359L114.646 192.082C114.853 192.202 115.084 192.297 115.324 192.38C115.408 192.41 115.496 192.435 115.583 192.459C115.697 192.491 115.809 192.521 115.927 192.545C116.066 192.573 116.205 192.599 116.347 192.617C116.381 192.621 116.414 192.627 116.447 192.631C116.638 192.651 116.831 192.661 117.025 192.662C117.056 192.662 117.087 192.663 117.118 192.662C117.309 192.661 117.499 192.65 117.688 192.631C117.717 192.628 117.745 192.625 117.774 192.621C117.961 192.599 118.145 192.567 118.325 192.527C118.359 192.519 118.391 192.51 118.425 192.502C118.588 192.461 118.747 192.413 118.899 192.357C118.927 192.347 118.957 192.339 118.985 192.328C119.169 192.257 119.344 192.176 119.507 192.082L158.469 169.587C158.638 169.49 158.785 169.385 158.911 169.275C158.955 169.236 158.982 169.193 159.021 169.154C159.094 169.079 159.172 169.006 159.226 168.928C159.26 168.881 159.275 168.83 159.302 168.781C159.342 168.708 159.39 168.635 159.415 168.559C159.433 168.506 159.432 168.451 159.443 168.398C159.457 168.325 159.478 168.253 159.478 168.179V166.797C159.481 166.291 159.148 165.784 158.479 165.395Z" fill="#455A64"/>
<path opacity="0.3" d="M90.053 175.498C90.0432 175.641 90.0516 175.784 90.0943 175.925C90.0971 175.936 90.0971 175.946 90.1006 175.956C90.1377 176.069 90.1958 176.179 90.2665 176.287C90.2742 176.299 90.2777 176.311 90.2861 176.323C90.3638 176.435 90.4632 176.543 90.578 176.648C90.585 176.654 90.5892 176.66 90.5955 176.667C90.7201 176.777 90.8643 176.88 91.0309 176.977L114.646 190.701C114.853 190.821 115.084 190.916 115.324 190.999C115.408 191.029 115.496 191.054 115.583 191.078C115.697 191.11 115.809 191.14 115.927 191.164C116.066 191.192 116.205 191.218 116.347 191.236C116.381 191.24 116.414 191.246 116.447 191.25C116.638 191.27 116.831 191.28 117.025 191.281C117.056 191.281 117.087 191.282 117.118 191.281C117.309 191.28 117.499 191.269 117.688 191.249C117.717 191.246 117.745 191.243 117.774 191.239C117.961 191.217 118.145 191.185 118.325 191.144C118.359 191.136 118.391 191.128 118.425 191.12C118.588 191.079 118.747 191.031 118.899 190.975C118.927 190.965 118.957 190.956 118.985 190.946C119.169 190.875 119.344 190.793 119.507 190.7L158.469 168.205C158.638 168.108 158.785 168.003 158.911 167.893C158.955 167.854 158.982 167.812 159.021 167.772C159.094 167.698 159.172 167.624 159.226 167.546C159.26 167.499 159.275 167.448 159.302 167.399C159.342 167.326 159.39 167.253 159.415 167.177C159.433 167.124 159.432 167.07 159.443 167.016C159.457 166.944 159.478 166.871 159.478 166.797V168.179C159.478 168.253 159.457 168.325 159.443 168.398C159.432 168.452 159.433 168.506 159.415 168.559C159.39 168.635 159.342 168.708 159.302 168.781C159.275 168.83 159.26 168.881 159.226 168.928C159.172 169.006 159.094 169.079 159.021 169.154C158.982 169.193 158.955 169.236 158.911 169.275C158.785 169.385 158.637 169.49 158.469 169.587L119.507 192.082C119.344 192.176 119.169 192.258 118.985 192.328C118.957 192.339 118.927 192.347 118.899 192.357C118.746 192.412 118.588 192.461 118.425 192.502C118.391 192.51 118.359 192.519 118.325 192.527C118.145 192.567 117.961 192.599 117.774 192.621C117.745 192.625 117.717 192.628 117.688 192.631C117.5 192.65 117.309 192.661 117.118 192.662C117.087 192.662 117.056 192.662 117.025 192.662C116.831 192.661 116.638 192.651 116.447 192.631C116.414 192.627 116.381 192.621 116.347 192.617C116.205 192.599 116.066 192.573 115.927 192.545C115.809 192.521 115.697 192.491 115.583 192.459C115.496 192.435 115.408 192.409 115.324 192.38C115.084 192.297 114.853 192.202 114.646 192.082L91.0309 178.358C90.8643 178.261 90.7201 178.157 90.5955 178.048C90.5885 178.041 90.5843 178.034 90.578 178.028C90.4625 177.925 90.3638 177.816 90.2861 177.703C90.2777 177.691 90.2742 177.68 90.2665 177.668C90.1958 177.56 90.1377 177.449 90.1006 177.337C90.0971 177.326 90.0971 177.316 90.0943 177.306C90.0635 177.203 90.0677 177.099 90.0642 176.994L90.0425 176.997V175.499L90.053 175.498Z" fill="black"/>
<path d="M156.173 166.798L118.321 188.651C118.282 188.674 118.24 188.694 118.172 188.723L118.09 188.751C118.019 188.777 117.946 188.8 117.794 188.837C117.692 188.862 117.589 188.878 117.586 188.881L117.442 188.895C117.342 188.906 117.232 188.912 117.074 188.914H117.04C116.923 188.913 116.806 188.907 116.653 188.889C116.572 188.879 116.493 188.864 116.406 188.845C116.347 188.833 116.099 188.763 116.099 188.763C116.009 188.732 115.919 188.703 115.837 188.655L103.661 181.576L142.76 159.002L156.173 166.798Z" fill="#455A64"/>
<path d="M117.031 188.915C117.048 188.915 117.058 188.914 117.074 188.914H117.088L117.031 188.915Z" fill="#F1BF37"/>
<path d="M120.163 160.786L127.285 164.975C127.761 165.255 127.758 165.944 127.28 166.22L116.632 172.367C116.262 172.581 115.807 172.579 115.44 172.362L108.319 168.174C107.843 167.894 107.847 167.205 108.324 166.93L118.971 160.782C119.34 160.569 119.796 160.57 120.163 160.786Z" fill="#455A64"/>
<path opacity="0.2" d="M156.173 166.798L118.321 188.651C118.282 188.674 118.24 188.694 118.172 188.723L118.09 188.751C118.019 188.777 117.946 188.8 117.794 188.837C117.692 188.862 117.589 188.878 117.586 188.881L117.442 188.895C117.342 188.906 117.232 188.912 117.074 188.914H117.04C116.923 188.913 116.806 188.907 116.653 188.889C116.572 188.879 116.493 188.864 116.406 188.845C116.347 188.833 116.099 188.763 116.099 188.763C116.009 188.732 115.919 188.703 115.837 188.655L103.661 181.576L142.76 159.002L156.173 166.798Z" fill="black"/>
<path opacity="0.2" d="M120.163 160.786L127.285 164.975C127.761 165.255 127.758 165.944 127.28 166.22L116.632 172.367C116.262 172.581 115.807 172.579 115.44 172.362L108.319 168.174C107.843 167.894 107.847 167.205 108.324 166.93L118.971 160.782C119.34 160.569 119.796 160.57 120.163 160.786Z" fill="black"/>
<path d="M164.841 137.885L164.852 137.881L163.919 137.416L163.918 137.422C163.599 137.289 163.223 137.286 162.875 137.488L123.644 160.297C122.412 161.013 121.568 162.247 121.347 163.655L117.313 189.304C117.225 189.865 117.534 190.331 117.972 190.544L117.955 190.547L118.858 190.992V190.988C119.17 191.107 119.532 191.101 119.867 190.906L159.099 168.096C160.332 167.38 161.175 166.147 161.396 164.738L165.43 139.089C165.512 138.56 165.24 138.114 164.841 137.885Z" fill="#455A64"/>
<path d="M143.445 161.355C141.544 162.453 139.807 164.962 139.551 166.963C139.296 168.963 140.617 169.707 142.519 168.61C144.411 167.518 146.157 165.003 146.412 163.002C146.668 161.001 145.337 160.263 143.445 161.355Z" fill="white"/>
<path opacity="0.3" d="M118.101 189.698L122.135 164.05C122.356 162.641 123.2 161.408 124.433 160.692L163.664 137.882C164.063 137.651 164.499 137.689 164.841 137.885L164.852 137.882L163.919 137.416L163.918 137.423C163.599 137.29 163.223 137.286 162.875 137.488L123.644 160.298C122.412 161.014 121.568 162.247 121.347 163.656L117.313 189.304C117.225 189.865 117.534 190.331 117.972 190.545L117.955 190.548L118.858 190.993V190.989C118.367 190.801 118.006 190.301 118.101 189.698Z" fill="black"/>
<path d="M101.006 258.551V299.75C101.001 302.813 103.185 305.77 107.154 308.077C111.458 310.578 117.231 311.955 123.409 311.955C129.589 311.955 135.381 310.577 139.715 308.074C143.746 305.747 145.967 302.764 145.972 299.676V258.551H101.006V258.551Z" fill="#455A64"/>
<path opacity="0.1" d="M101.006 258.551V299.75C101.001 302.813 103.185 305.77 107.154 308.077V290.36C107.154 286.079 111.107 282.915 115.291 283.818C117.845 284.37 120.584 284.658 123.408 284.658C129.589 284.658 135.38 283.279 139.714 280.778C143.745 278.45 145.967 275.467 145.971 272.379V258.552L101.006 258.551Z" fill="black"/>
<path d="M107.154 266.879C111.458 269.379 117.23 270.757 123.409 270.757C129.589 270.757 135.381 269.378 139.715 266.876C143.746 264.549 145.967 261.566 145.972 258.478C145.976 255.415 143.792 252.457 139.822 250.15C135.519 247.65 129.746 246.272 123.568 246.272C117.388 246.272 111.597 247.65 107.263 250.153C103.232 252.48 101.01 255.463 101.006 258.552C101.001 261.615 103.185 264.571 107.154 266.879Z" fill="#37474F"/>
<path d="M106.062 268.381L109.813 269.632L112.383 268.381L112.787 267.34L115.126 266.403L115.82 262.079L114.817 261.124L115.022 259.369L112.787 257.651L112.696 259.006L109.292 257.061L108.529 258.311L106.34 258.207L103.91 261.645L104.917 263.512L104.187 264.562L104.361 265.865L106.062 268.381Z" fill="white"/>
<path d="M109.014 258.832L110.82 260.499L111.029 261.915L112.174 262.791L111.931 266.546L111.723 263.138L110.3 262.384L110.056 260.638L109.014 258.832Z" fill="#E0E0E0"/>
<path d="M112.787 257.651L113.668 259.857V261.923L113.228 259.787L112.696 259.006L112.787 257.651Z" fill="#E0E0E0"/>
<path d="M109.292 257.061L109.57 258.207L110.594 259.301L109.292 258.589L108.529 258.311L109.292 257.061Z" fill="#E0E0E0"/>
<path d="M106.34 258.207L106.254 260.412L108.007 262.982L108.529 265.448L107.643 263.104L105.334 261.176L105.033 260.056L106.34 258.207Z" fill="#E0E0E0"/>
<path d="M111.714 267.497L110.464 268.225L108.641 267.627L107.339 267.861L106.193 266.546L105.88 265.283L104.5 264.736L105.542 265.569L105.672 266.832L107.156 268.59L108.529 268.278L110.594 268.955L111.714 267.497Z" fill="#E0E0E0"/>
<path d="M119.27 253.952L116.407 254.845L115.699 254.26L113.298 256.045L113.899 258.323L113.298 259.207L114.437 261.555L114.16 262.264L117.993 264.141L120.809 263.956L121.825 264.541L124.79 262.817L124.134 261.001L126.842 257.8L125.18 254.629L122.872 255.153L121.671 253.336L119.516 254.783L119.27 253.952Z" fill="white"/>
<path d="M115.699 254.26V256.823L117.762 257.984L118.347 259.462L120.84 258.723L121.363 259.206L123.579 257.307L121.445 258.621L120.932 257.984L118.593 259.052L118.326 257.389L116.069 256.548L116.407 254.845L115.699 254.26Z" fill="#E0E0E0"/>
<path d="M119.311 256.404L120.07 257.123L120.809 256.764L121.712 257.123L123.025 256.404L122.871 255.153L123.477 256.528L121.876 257.697L120.871 257.246L119.927 257.841L119.311 256.404Z" fill="#E0E0E0"/>
<path d="M121.671 253.336L120.732 254.629L121.07 255.153L119.885 256.292L120.455 255.276L120.07 254.937L120.162 254.645L119.516 254.783L121.671 253.336Z" fill="#E0E0E0"/>
<path d="M119.27 253.953L117.977 255.03L116.677 254.761L119.27 253.953Z" fill="#E0E0E0"/>
<path d="M116.376 259.462L117.484 261.186L118.942 260.55L120.07 261.371L121.014 261.001L121.671 261.371L125.529 258.087L121.753 261.904L121.138 261.453L119.803 262.028L118.819 261.165L117.239 261.781L116.376 259.462Z" fill="#E0E0E0"/>
<path d="M113.298 256.045L114.16 257.123L115.104 257.349L114.838 259.207H115.515L115.391 260.735L115.145 259.688L114.406 259.77V258.211L113.899 258.323L113.298 256.045Z" fill="#E0E0E0"/>
<path d="M125.18 254.629L125.037 257.164L126.842 257.8L125.18 254.629Z" fill="#E0E0E0"/>
<path d="M128.602 264.565L131.27 264.785L131.661 265.506L134.246 264.832L134.512 262.746L135.304 262.215L135.148 259.89L135.614 259.396L133.07 256.559L130.677 255.769L130.032 254.944L127.001 255.378L126.936 257.102L123.622 258.845L123.936 262.026L126.022 262.366L126.408 264.271L128.676 263.794L128.602 264.565Z" fill="#F0F0F0"/>
<path d="M131.661 265.506L132.518 263.385L131.2 261.732L131.211 260.313L128.9 260.09L128.628 259.515L126.158 260.345L128.364 259.972L128.576 260.67L130.87 260.571L130.534 262.036L132.121 263.488L131.27 264.785L131.661 265.506Z" fill="#E0E0E0"/>
<path d="M129.388 262.521L129.001 261.673L128.269 261.723L127.642 261.123L126.314 261.278L126.022 262.366L125.981 261.025L127.698 260.593L128.379 261.303L129.36 261.126L129.388 262.521Z" fill="#E0E0E0"/>
<path d="M126.408 264.271L127.618 263.515L127.513 262.968L128.875 262.422L128.064 263.073L128.269 263.481L128.094 263.693L128.676 263.794L126.408 264.271Z" fill="#E0E0E0"/>
<path d="M128.602 264.565L130.032 264.106L131.019 264.764L128.602 264.565Z" fill="#E0E0E0"/>
<path d="M132.842 260.973L132.501 259.175L131.083 259.214L130.423 258.157L129.518 258.146L129.098 257.62L124.805 259.046L129.209 257.151L129.567 257.731L130.864 257.702L131.391 258.745L132.905 258.765L132.842 260.973Z" fill="#E0E0E0"/>
<path d="M134.246 264.832L133.893 263.652L133.187 263.149L134.03 261.7L133.469 261.473L134.083 260.25L133.936 261.199L134.575 261.378L134.053 262.669L134.512 262.746L134.246 264.832Z" fill="#E0E0E0"/>
<path d="M123.936 262.026L124.904 259.976L123.622 258.845L123.936 262.026Z" fill="#E0E0E0"/>
<path d="M138.345 263.238L140.135 267.179L136.037 271.756L135.041 270.693L132.71 271.566L129.815 269.116L130.399 267.452L128.771 266.817C128.771 266.817 128.995 264.641 128.971 264.512C128.947 264.383 129.777 261.873 129.777 261.873L135.242 260.871L137.016 262.055L138.345 263.238Z" fill="white"/>
<path d="M136.036 271.756L136.188 269.548L137.738 267.33L136.904 265.081L135.305 264.608L136.499 265.422L137.14 267.217L135.548 269.088L135.041 270.693L136.036 271.756Z" fill="#E0E0E0"/>
<path d="M132.71 271.565L132.379 269.758L133.498 268.58L133.712 267.445L134.899 267.005L134.616 264.734L134.331 266.82L132.971 267.403L132.91 268.526L131.551 269.487L132.71 271.565Z" fill="#E0E0E0"/>
<path d="M129.815 269.116L131.167 268.245L132.222 266.228L130.74 267.611L130.399 267.452L129.815 269.116Z" fill="#E0E0E0"/>
<path d="M137.915 264.896L136.322 263.608L134.859 263.876L134.098 263.483L132.294 264.08L134.282 262.915L134.934 263.287L136.486 263.045L137.915 264.896Z" fill="#E0E0E0"/>
<path d="M129.222 266.489L130.587 265.927L130.612 264.611L131.077 263.992L130.418 264.401L130.205 265.544L129.222 266.489Z" fill="#E0E0E0"/>
<path d="M111.942 269.354L110.892 265.154L115.748 261.391L116.536 262.616L118.986 262.179L121.392 265.11L120.517 266.642L122.005 267.561C122.005 267.561 121.392 269.661 121.392 269.793C121.392 269.924 120.123 272.243 120.123 272.243H114.567L113.035 270.758L111.942 269.354Z" fill="#F0F0F0"/>
<path d="M115.748 261.391L115.201 263.535L113.276 265.439L113.692 267.801L115.179 268.554L114.151 267.539L113.844 265.657L115.748 264.104L116.535 262.616L115.748 261.391Z" fill="#E0E0E0"/>
<path d="M118.985 262.179V264.016L117.673 264.972L117.257 266.051L116.01 266.27L115.879 268.554L116.535 266.554L117.979 266.226L118.242 265.132L119.751 264.432L118.985 262.179Z" fill="#E0E0E0"/>
<path d="M121.392 265.11L119.904 265.723L118.504 267.516L120.21 266.423L120.517 266.641L121.392 265.11Z" fill="#E0E0E0"/>
<path d="M112.663 267.801L113.998 269.353H115.485L116.163 269.878L118.044 269.616L115.879 270.403L115.305 269.92L113.735 269.878L112.663 267.801Z" fill="#E0E0E0"/>
<path d="M121.501 267.801L120.057 268.107L119.794 269.397L119.226 269.922L119.948 269.638L120.363 268.553L121.501 267.801Z" fill="#E0E0E0"/>
<path d="M129.601 272.226L125.851 273.476L123.281 272.226L122.876 271.184L120.538 270.247L119.843 265.923L120.847 264.968L120.642 263.212L122.876 261.495L122.968 262.85L126.371 260.905L127.135 262.155L129.323 262.051L131.754 265.489L130.747 267.356L131.477 268.406L131.303 269.708L129.601 272.226Z" fill="white"/>
<path d="M126.649 262.676L124.843 264.343L124.635 265.759L123.489 266.635L123.732 270.39L123.94 266.982L125.364 266.228L125.608 264.482L126.649 262.676Z" fill="#E0E0E0"/>
<path d="M122.876 261.496L121.996 263.701V265.767L122.436 263.631L122.968 262.85L122.876 261.496Z" fill="#E0E0E0"/>
<path d="M126.372 260.905L126.094 262.051L125.07 263.145L126.372 262.433L127.135 262.155L126.372 260.905Z" fill="#E0E0E0"/>
<path d="M129.323 262.051L129.41 264.256L127.657 266.826L127.135 269.291L128.021 266.948L130.33 265.02L130.63 263.9L129.323 262.051Z" fill="#E0E0E0"/>
<path d="M123.949 271.34L125.2 272.07L127.022 271.471L128.325 271.705L129.471 270.39L129.783 269.127L131.164 268.58L130.122 269.413L129.992 270.677L128.507 272.434L127.135 272.122L125.069 272.799L123.949 271.34Z" fill="#E0E0E0"/>
<path d="M147.828 258.514C147.808 262.122 145.412 265.73 140.643 268.483C131.106 273.988 115.697 273.988 106.222 268.483C101.485 265.73 99.129 262.122 99.1493 258.514V264.494C99.129 268.102 101.485 271.71 106.222 274.463C115.697 279.969 131.106 279.969 140.643 274.463C145.411 271.711 147.808 268.102 147.828 264.494V258.514Z" fill="#455A64"/>
<path d="M106.222 268.483C115.697 273.989 131.106 273.989 140.643 268.483C145.411 265.73 147.808 262.122 147.828 258.514C147.848 254.907 145.492 251.299 140.755 248.546C131.281 243.04 115.871 243.04 106.336 248.546C101.567 251.299 99.1703 254.907 99.15 258.514C99.1297 262.123 101.485 265.731 106.222 268.483ZM107.263 250.153C111.597 247.65 117.388 246.272 123.568 246.272C129.747 246.272 135.519 247.65 139.822 250.15C143.792 252.457 145.976 255.415 145.972 258.478C145.967 261.566 143.746 264.549 139.715 266.877C135.381 269.379 129.59 270.757 123.409 270.757C117.231 270.757 111.458 269.379 107.155 266.879C103.185 264.571 101.002 261.615 101.006 258.551C101.01 255.462 103.232 252.48 107.263 250.153Z" fill="#455A64"/>
<path opacity="0.2" d="M147.828 258.514C147.808 262.122 145.412 265.73 140.643 268.483C131.106 273.988 115.697 273.988 106.222 268.483C101.485 265.73 99.129 262.122 99.1493 258.514V264.494C99.129 268.102 101.485 271.71 106.222 274.463C115.697 279.969 131.106 279.969 140.643 274.463C145.411 271.711 147.808 268.102 147.828 264.494V258.514Z" fill="white"/>
<path opacity="0.3" d="M106.222 268.483C115.697 273.989 131.106 273.989 140.643 268.483C145.411 265.73 147.808 262.122 147.828 258.514C147.848 254.907 145.492 251.299 140.755 248.546C131.281 243.04 115.871 243.04 106.336 248.546C101.567 251.299 99.1703 254.907 99.15 258.514C99.1297 262.123 101.485 265.731 106.222 268.483ZM107.263 250.153C111.597 247.65 117.388 246.272 123.568 246.272C129.747 246.272 135.519 247.65 139.822 250.15C143.792 252.457 145.976 255.415 145.972 258.478C145.967 261.566 143.746 264.549 139.715 266.877C135.381 269.379 129.59 270.757 123.409 270.757C117.231 270.757 111.458 269.379 107.155 266.879C103.185 264.571 101.002 261.615 101.006 258.551C101.01 255.462 103.232 252.48 107.263 250.153Z" fill="white"/>
<path d="M153.864 312.341L158.176 313.778L161.131 312.341L161.596 311.143L164.285 310.065L165.083 305.094L163.929 303.997L164.165 301.979L161.596 300.004L161.49 301.561L157.578 299.326L156.699 300.763L154.184 300.643L151.389 304.595L152.547 306.741L151.709 307.949L151.908 309.447L153.864 312.341Z" fill="white"/>
<path d="M157.258 301.361L159.334 303.278L159.573 304.906L160.892 305.913L160.612 310.23L160.372 306.312L158.736 305.445L158.456 303.438L157.258 301.361Z" fill="#E0E0E0"/>
<path d="M161.596 300.004L162.608 302.539V304.914L162.102 302.46L161.49 301.561L161.596 300.004Z" fill="#E0E0E0"/>
<path d="M157.578 299.326L157.897 300.643L159.075 301.9L157.578 301.082L156.699 300.763L157.578 299.326Z" fill="#E0E0E0"/>
<path d="M154.184 300.643L154.084 303.178L156.1 306.132L156.699 308.967L155.681 306.272L153.026 304.056L152.68 302.769L154.184 300.643Z" fill="#E0E0E0"/>
<path d="M160.362 311.323L158.925 312.161L156.829 311.472L155.332 311.742L154.014 310.23L153.655 308.778L152.068 308.148L153.266 309.107L153.415 310.559L155.122 312.58L156.699 312.221L159.075 312.999L160.362 311.323Z" fill="#E0E0E0"/>
<path d="M175.267 294.503L176.886 298.068L173.179 302.207L172.279 301.246L170.171 302.035L167.552 299.82L168.08 298.315L166.607 297.74C166.607 297.74 166.809 295.772 166.788 295.655C166.767 295.538 167.518 293.269 167.518 293.269L172.46 292.363L174.065 293.434L175.267 294.503Z" fill="white"/>
<path d="M173.179 302.207L173.316 300.211L174.719 298.204L173.963 296.17L172.517 295.743L173.597 296.478L174.177 298.102L172.737 299.794L172.279 301.246L173.179 302.207Z" fill="#E0E0E0"/>
<path d="M170.171 302.035L169.871 300.4L170.883 299.335L171.076 298.308L172.15 297.911L171.894 295.857L171.636 297.743L170.406 298.271L170.351 299.286L169.122 300.156L170.171 302.035Z" fill="#E0E0E0"/>
<path d="M167.552 299.82L168.776 299.032L169.728 297.208L168.388 298.46L168.081 298.315L167.552 299.82Z" fill="#E0E0E0"/>
<path d="M174.878 296.003L173.437 294.839L172.114 295.082L171.425 294.725L169.794 295.265L171.592 294.211L172.182 294.548L173.585 294.329L174.878 296.003Z" fill="#E0E0E0"/>
<path d="M167.016 297.444L168.25 296.936L168.273 295.745L168.694 295.185L168.098 295.556L167.905 296.589L167.016 297.444Z" fill="#E0E0E0"/>
<path d="M259.191 225.993C259.003 228.798 258.16 231.999 258.16 231.999C259.675 236.271 264.678 234.047 264.678 234.047L264.795 233.382L264.884 232.862C265.153 231.343 266.162 228.263 266.162 228.263L259.191 225.993Z" fill="#FFA8A7"/>
<path d="M264.015 239.724C263.366 240.193 262.657 240.571 262.007 241.038C260.216 242.324 259.042 243.99 257.251 245.276C255.484 246.545 253.244 247.137 251.081 246.907C249.098 246.695 246.646 245.747 245.124 244.35C245.134 244.763 245.166 245.204 245.234 245.688C246.695 247.3 248.76 248.351 250.923 248.582C253.086 248.812 255.327 248.22 257.094 246.951C258.884 245.666 260.06 244 261.85 242.713C262.499 242.246 263.209 241.868 263.857 241.399C264.505 240.93 265.049 240.306 265.359 239.569C265.359 239.569 265.322 239.083 265.289 238.334C264.971 238.88 264.528 239.352 264.015 239.724Z" fill="#F0F0F0"/>
<path d="M265.335 233.51C265.376 233.03 264.884 232.862 264.884 232.862L264.795 233.382C264.795 233.382 263.843 233.563 262.726 233.378C262.286 233.305 261.838 233.423 261.516 233.73L261.322 233.914C261.22 234.011 261.08 234.116 260.951 234.057C260.872 234.019 260.83 233.926 260.828 233.837C260.827 233.749 260.858 233.664 260.889 233.581C260.953 233.41 261.012 233.197 261.071 232.986C261.171 232.631 261.066 232.243 260.788 231.998C260.078 231.37 259.157 230.981 258.211 230.911C257.913 230.889 257.652 231.094 257.592 231.387C256.969 234.414 251.271 239.223 249.502 239.483C249.362 239.504 249.224 239.527 249.088 239.552C251.893 239.936 255.422 241.491 255.631 246.186C256.2 245.938 256.745 245.637 257.25 245.275C259.04 243.99 260.215 242.324 262.006 241.037C262.655 240.571 263.365 240.192 264.013 239.723C264.527 239.351 264.969 238.879 265.287 238.333C265.235 237.109 265.191 235.178 265.335 233.51Z" fill="#37474F"/>
<path d="M249.089 239.553C246.665 239.997 245.048 241.149 245.124 244.348C246.646 245.746 249.098 246.695 251.081 246.906C252.626 247.07 254.209 246.808 255.632 246.186C255.424 241.492 251.894 239.936 249.089 239.553Z" fill="white"/>
<path d="M292.027 216.421C294.277 218.248 295.277 220.28 295.277 220.28C298.056 222.052 301.19 217.068 301.19 217.068L300.963 216.592C300.181 215.199 298.34 211.738 298.34 211.738L292.027 216.421Z" fill="#FFA8A7"/>
<path d="M304.22 222.693C303.962 223.451 303.602 224.17 303.341 224.926C302.624 227.01 302.629 229.049 301.911 231.133C301.202 233.19 299.716 234.969 297.818 236.031C296.078 237.006 293.529 237.65 291.479 237.388C291.726 237.72 292.008 238.06 292.343 238.416C294.467 238.888 296.759 238.551 298.658 237.489C300.556 236.426 302.042 234.648 302.75 232.591C303.467 230.506 303.463 228.468 304.181 226.383C304.441 225.627 304.802 224.908 305.059 224.151C305.317 223.393 305.399 222.571 305.227 221.79C305.227 221.79 304.916 221.414 304.456 220.822C304.512 221.452 304.424 222.093 304.22 222.693Z" fill="#F0F0F0"/>
<path d="M301.705 216.86C301.461 216.445 300.963 216.592 300.963 216.592L301.19 217.068C301.19 217.068 300.518 217.765 299.5 218.26C299.099 218.455 298.801 218.811 298.716 219.248L298.665 219.51C298.637 219.648 298.584 219.815 298.445 219.841C298.358 219.857 298.27 219.804 298.218 219.733C298.166 219.662 298.143 219.574 298.12 219.489C298.074 219.312 297.998 219.104 297.925 218.898C297.8 218.55 297.491 218.295 297.123 218.255C296.18 218.153 295.203 218.368 294.391 218.857C294.135 219.012 294.041 219.33 294.162 219.604C295.403 222.434 293.534 229.652 292.241 230.886C292.138 230.984 292.04 231.083 291.943 231.182C294.454 229.873 298.233 229.103 301.117 232.813C301.437 232.281 301.709 231.721 301.911 231.133C302.629 229.049 302.625 227.01 303.342 224.926C303.603 224.17 303.963 223.451 304.221 222.693C304.425 222.093 304.513 221.452 304.457 220.822C303.704 219.854 302.553 218.304 301.705 216.86Z" fill="#37474F"/>
<path d="M291.943 231.183C290.221 232.946 289.568 234.822 291.479 237.388C293.529 237.65 296.078 237.006 297.819 236.032C299.175 235.272 300.315 234.144 301.116 232.813C298.232 229.103 294.453 229.874 291.943 231.183Z" fill="white"/>
<path d="M285.172 139.571C288.945 153.039 285.263 165.219 279.167 183.069C284.005 186.649 290.869 197.521 298.913 211.987C298.913 211.987 294.431 218.195 289.416 218.353C288.425 217.057 274.968 199.688 274.968 199.688L266.819 229.234C266.819 229.234 260.36 230.266 256.621 226.601C256.621 226.601 261.618 192.824 263.118 184.613C259.26 176.993 253.628 163.625 258.532 139.599L285.172 139.571Z" fill="#455A64"/>
<path opacity="0.2" d="M263.559 182.426C265.276 169.337 267.251 160.474 267.251 160.474C262.291 157.843 260.703 155.083 260.703 155.083C261.497 159.511 265.345 161.971 265.345 161.971C263.785 169.482 263.559 182.426 263.559 182.426Z" fill="black"/>
<path opacity="0.2" d="M274.967 199.688C275.783 196.644 275.696 193.044 275.696 193.044L279.166 183.068L276.606 193.154C276.825 195.551 276.896 199.971 276.38 201.512L274.967 199.688Z" fill="black"/>
<path d="M262.379 105.248C259.268 103.569 257.409 103.984 255.78 102.848C254.15 101.713 246.252 94.5041 246.252 94.5041L240.593 72.6494C239.093 68.2387 233.563 67.0046 230.404 67.8929C227.244 68.7819 221.626 71.9921 222.609 73.6714C223.593 75.35 226.115 76.6534 227.842 76.5547C229.571 76.456 234.156 73.9661 234.156 73.9661L237.607 95.8208C238.055 98.6635 239.524 101.247 241.737 103.086L253.806 113.116L260.916 125.43L262.379 105.248Z" fill="#FFA8A7"/>
<path opacity="0.2" d="M237.024 74.2637C238.209 74.3127 238.946 73.9144 239.685 73.29C239.238 74.4233 238.343 75.3998 237.225 75.8856C236.744 77.6209 234.942 78.9579 234.942 78.9579L234.326 75.0561L237.024 74.2637Z" fill="black"/>
<path d="M237.024 74.2634C236.713 74.8962 236.276 75.4548 235.838 76.012C235.46 76.4929 235.054 76.9514 234.619 77.3812C234.41 77.5877 234.183 77.8138 233.959 77.9986C233.864 78.077 233.754 78.147 233.64 78.2135C233.243 78.4431 232.748 78.3682 232.408 78.0609C232.394 78.0483 232.38 78.035 232.366 78.0224C231.924 77.6283 231.905 76.9591 232.307 76.5258C232.987 75.7936 233.556 74.9452 234.087 74.101C234.34 73.6978 234.645 73.2435 234.754 72.7822C235.215 73.1322 235.929 73.2057 236.418 73.5438C236.65 73.7055 236.833 74.0562 237.024 74.2634Z" fill="#FFA8A7"/>
<path d="M239.471 84.2757C240.894 83.9271 242.187 83.099 243.127 81.9755L241.936 77.8413C241.936 77.8413 238.538 80.7309 234.994 79.2812L235.532 84.072C236.79 84.5123 238.176 84.5935 239.471 84.2757Z" fill="#0560FA"/>
<path d="M262.379 105.248C260.644 103.663 258.123 103.41 256.74 102.85C255.358 102.291 246.636 94.1605 246.636 94.1605L243.127 81.9756C242.187 83.0991 240.894 83.9272 239.471 84.2758C238.176 84.5936 236.79 84.5124 235.532 84.0721L236.879 96.0589C237.225 99.1459 238.77 101.972 241.181 103.932L253.35 113.822L260.914 125.429C260.914 125.429 264.113 106.833 262.379 105.248Z" fill="#0560FA"/>
<g opacity="0.4">
<path opacity="0.5" d="M239.471 84.2757C240.894 83.9271 242.187 83.099 243.127 81.9755L241.936 77.8413C241.936 77.8413 238.538 80.7309 234.994 79.2812L235.532 84.072C236.79 84.5123 238.176 84.5935 239.471 84.2757Z" fill="white"/>
<path d="M262.379 105.248C260.644 103.663 258.123 103.41 256.74 102.85C255.358 102.291 246.636 94.1605 246.636 94.1605L243.127 81.9756C242.187 83.0991 240.894 83.9272 239.471 84.2758C238.176 84.5936 236.79 84.5124 235.532 84.0721L236.879 96.0589C237.225 99.1459 238.77 101.972 241.181 103.932L253.35 113.822L260.914 125.429C260.914 125.429 264.113 106.833 262.379 105.248Z" fill="white"/>
</g>
<path d="M267.909 104.663L262.379 105.248C257.848 109.242 255.509 117.622 256.484 126.878C257.458 136.134 257.165 145.976 257.165 145.976C269.443 154.94 284.935 148.412 286.883 146.463L285.972 135.113C285.87 133.836 286.087 132.554 286.593 131.376C287.753 128.684 289.82 123.385 290.099 119.278C290.489 113.529 287.858 108.706 287.858 108.706L279.819 105.198L267.909 104.663Z" fill="#0560FA"/>
<g opacity="0.5">
<path d="M267.909 104.663L262.379 105.248C257.848 109.242 255.509 117.622 256.484 126.878C257.458 136.134 257.165 145.976 257.165 145.976C269.443 154.94 284.935 148.412 286.883 146.463L285.972 135.113C285.87 133.836 286.087 132.554 286.593 131.376C287.753 128.684 289.82 123.385 290.099 119.278C290.489 113.529 287.858 108.706 287.858 108.706L279.819 105.198L267.909 104.663Z" fill="white"/>
</g>
<path d="M266.372 112.726C261.745 123.371 261.818 134.332 261.818 134.332L264.095 139.228L267.665 134.551C267.153 123.955 268.093 113.042 268.093 113.042L266.372 112.726Z" fill="#0560FA"/>
<path d="M266.179 108.707C266.008 110.85 266.372 112.726 266.372 112.726C266.983 113.14 268.093 113.042 268.093 113.042C269.564 111.898 270.856 109.705 270.856 109.705L268.093 108.707H266.179Z" fill="#0560FA"/>
<path d="M268.093 108.707C270.474 109.584 272.592 113.823 272.592 113.823C278.845 108.512 279.82 105.199 279.82 105.199C278.212 102.91 276.79 102 276.79 102L268.093 108.707Z" fill="#0560FA"/>
<path d="M268.092 108.707C266.276 108.755 264.668 111.289 264.668 111.289C264.375 106.856 268.092 103.446 268.092 103.446V108.707Z" fill="#0560FA"/>
<g opacity="0.35">
<path d="M268.093 108.707C270.474 109.584 272.592 113.823 272.592 113.823C278.845 108.512 279.82 105.199 279.82 105.199C278.212 102.91 276.79 102 276.79 102L268.093 108.707Z" fill="white"/>
<path d="M268.092 108.707C266.276 108.755 264.668 111.289 264.668 111.289C264.375 106.856 268.092 103.446 268.092 103.446V108.707Z" fill="white"/>
</g>
<path d="M279.822 84.1216C278.61 82.5893 276.67 82.4248 276.67 82.4248L260.211 83.9746C258.313 88.057 259.829 90.7541 259.829 90.7541C259.573 96.9799 259.36 100.938 262.058 102.248C263.526 102.962 265.764 103.267 268.068 103.094C269.996 102.949 271.969 102.471 273.582 101.608L273.669 101.561C274.873 100.916 275.728 99.7638 276.028 98.4163C276.299 97.2025 276.502 95.9747 276.594 94.7329C276.646 94.0301 276.674 93.321 276.824 92.6329C276.974 91.9441 277.256 91.2665 277.748 90.7688C278.239 90.2704 278.965 89.9778 279.644 90.1255C279.763 90.1514 279.873 90.2046 279.983 90.255C280.452 87.49 280.59 85.0925 279.822 84.1216Z" fill="#37474F"/>
<path d="M273.795 84.5982C273.434 85.7287 273.655 86.9656 274.012 88.0975C274.369 89.2294 274.862 90.3242 275.057 91.496C275.25 92.6531 275.134 93.8823 274.605 94.926C274.077 95.9704 273.113 96.8069 271.982 97.0505C270.214 97.4313 268.486 96.3841 266.713 96.0355C265.066 95.7114 263.242 96.0628 261.759 96.9245C261.199 97.2493 260.502 96.8825 260.464 96.2301C260.253 92.6468 260.257 87.0321 260.779 84.3945L273.795 84.5982Z" fill="#FFA8A7"/>
<path d="M275.473 100.605L275.474 100.603L275.467 100.607L275.473 100.605Z" fill="#FFA8A7"/>
<path d="M276.91 96.5264C276.91 96.5264 276.877 97.9803 276.839 99.7156C277.511 99.1563 277.966 98.4752 278.373 97.3027C277.803 97.2299 277.229 96.9499 276.91 96.5264Z" fill="#37474F"/>
<path d="M261.058 81.3532C260.376 80.8723 259.694 80.3914 259.013 79.9105C258.546 81.2727 258.903 82.875 259.795 83.9985C260.686 85.1213 262.018 85.8241 263.401 86.1538C264.784 86.4835 266.225 86.4667 267.642 86.3498C269.714 86.179 271.769 85.7982 273.767 85.2144C274.649 84.9568 275.564 84.6306 276.173 83.9327C277.064 82.9107 277.036 81.2678 276.299 80.1268C275.563 78.9858 274.247 78.3215 272.916 78.1388C271.56 77.9526 270.188 78.2116 268.843 78.465C267.499 78.7184 266.123 78.9676 264.77 78.7618C263.417 78.556 262.067 77.8105 261.486 76.5547C260.333 78.4517 261.058 81.3532 261.058 81.3532Z" fill="#37474F"/>
<path d="M266.222 90.9517L263.22 94.6414L265.974 95.6291L266.222 90.9517Z" fill="#F28F8F"/>
<path d="M268.494 97.4609C267.721 97.7017 266.948 97.9432 266.176 98.1847C266.414 98.7314 267.17 99.0723 267.738 98.9141C268.305 98.7552 268.564 98.0538 268.494 97.4609Z" fill="#F28F8F"/>
<path opacity="0.3" d="M268.494 97.4609C267.721 97.7017 266.948 97.9432 266.176 98.1847C266.414 98.7314 267.17 99.0723 267.738 98.9141C268.305 98.7552 268.564 98.0538 268.494 97.4609Z" fill="black"/>
<path d="M266.978 98.8671C267.23 98.9546 267.499 98.9798 267.737 98.9133C268.183 98.7894 268.435 98.3295 268.49 97.8514C268.185 97.8045 267.862 97.8577 267.595 98.0173C267.287 98.2014 267.067 98.5171 266.978 98.8671Z" fill="#F28F8F"/>
<path d="M270.305 91.7607C270.28 92.222 269.892 92.5762 269.438 92.5517C268.983 92.5265 268.634 92.1324 268.658 91.6711C268.683 91.2098 269.071 90.8556 269.526 90.8801C269.98 90.9053 270.329 91.2994 270.305 91.7607Z" fill="#F1BF37"/>
<path d="M263.407 91.1132C263.383 91.5745 262.994 91.9287 262.54 91.9042C262.085 91.8797 261.736 91.4849 261.761 91.0236C261.785 90.5623 262.174 90.2081 262.628 90.2326C263.082 90.2578 263.432 90.6519 263.407 91.1132Z" fill="#F1BF37"/>
<path d="M262.782 87.7443C262.151 88.1384 261.52 88.5318 260.889 88.9259C260.732 88.4765 260.936 87.9158 261.315 87.6344C261.694 87.3523 262.408 87.4566 262.782 87.7443Z" fill="#F1BF37"/>
<path d="M269.837 88.0287C270.423 88.4893 271.008 88.9492 271.594 89.4091C271.797 88.9793 271.654 88.3997 271.307 88.0784C270.96 87.7571 270.24 87.783 269.837 88.0287Z" fill="#F1BF37"/>
<path d="M281.123 91.4653C280.899 90.9403 280.492 90.4867 279.983 90.2557C279.873 90.2053 279.764 90.1528 279.644 90.1262C278.965 89.9785 278.24 90.2711 277.748 90.7695C277.257 91.2672 276.974 91.9448 276.824 92.6336C276.674 93.3217 276.646 94.0308 276.595 94.7336C276.5 96.0055 276.289 97.2634 276.009 98.5059C275.711 99.8233 274.842 100.934 273.664 101.564L273.583 101.608C271.97 102.471 269.996 102.949 268.069 103.094L268.078 104.753V108.706L275.858 104.102C276.417 103.771 276.766 103.171 276.779 102.515C276.798 101.617 276.819 100.628 276.84 99.7141C276.877 97.9788 276.91 96.5249 276.91 96.5249C277.23 96.9484 277.804 97.2284 278.373 97.3019C278.64 97.3362 278.905 97.3292 279.142 97.2627C279.885 97.0541 280.49 96.4696 280.853 95.7787C281.215 95.0878 281.357 94.2982 281.4 93.5163C281.437 92.8212 281.395 92.1044 281.123 91.4653Z" fill="#FFA8A7"/>
<path opacity="0.2" d="M274.692 101.495C275.148 100.901 275.48 100.203 275.652 99.4712C275.223 100.355 274.538 101.097 273.663 101.565C273.636 101.58 273.608 101.594 273.582 101.608C271.969 102.472 269.996 102.949 268.069 103.094L268.076 104.526C269.185 104.407 270.286 104.212 271.334 103.831C272.629 103.362 273.846 102.596 274.692 101.495Z" fill="black"/>
<path d="M285.22 107.568C290.529 108.847 292.081 111.268 299.506 116.311C304.711 119.846 307.98 123.206 309.47 124.9C310.08 125.592 310.477 126.448 310.571 127.366C311.752 138.828 309.124 150.017 309.124 150.017C308.644 153.761 307.464 157.806 306.258 159.846C305.318 161.437 303.766 162.581 301.961 162.975C301.284 163.124 300.679 163.228 300.14 163.299C298.598 163.503 297.525 161.82 298.306 160.474C300.153 157.294 301.188 153.859 301.188 153.859L299.028 156.235C298.661 156.638 298.04 156.678 297.627 156.323L297.618 156.316C297.213 155.969 297.15 155.368 297.47 154.942C299.202 152.632 301.032 150.04 302.308 149.237C302.963 142.4 302.728 134.507 303.149 131.224C293.412 124.859 288.509 124.018 285.286 119.886C282.064 115.751 285.22 107.568 285.22 107.568Z" fill="#FFA8A7"/>
<path d="M310.612 142.416C311.545 136.441 311.905 128.613 310.877 126.328C309.581 123.446 304.247 118.789 299.368 115.464C294.49 112.138 292.421 108.257 285.22 107.568C284.486 108.293 282.822 113.08 283.709 117.348C284.596 121.617 287.506 122.614 302.861 131.401C302.46 132.95 302.299 136.933 302.339 140.678C304.68 142.391 307.78 143.021 310.612 142.416Z" fill="#0560FA"/>
<path d="M302.339 140.679C302.36 142.627 302.434 144.512 302.557 145.954C302.557 145.954 307.35 148.669 309.777 146.598C310.085 145.42 310.368 143.981 310.612 142.417C307.78 143.021 304.68 142.391 302.339 140.679Z" fill="#0560FA"/>
<path opacity="0.4" d="M310.612 142.416C311.545 136.441 311.905 128.613 310.877 126.328C309.581 123.446 304.247 118.789 299.368 115.464C294.49 112.138 292.421 108.257 285.22 107.568C284.486 108.293 282.822 113.08 283.709 117.348C284.596 121.617 287.506 122.614 302.861 131.401C302.46 132.95 302.299 136.933 302.339 140.678C304.68 142.391 307.78 143.021 310.612 142.416Z" fill="white"/>
<path opacity="0.3" d="M302.339 140.679C302.36 142.627 302.434 144.512 302.557 145.954C302.557 145.954 307.35 148.669 309.777 146.598C310.085 145.42 310.368 143.981 310.612 142.417C307.78 143.021 304.68 142.391 302.339 140.679Z" fill="white"/>
<path d="M128.135 238.159L122.597 240.005L118.801 238.159L118.203 236.62L114.75 235.236L113.724 228.851L115.207 227.44L114.904 224.848L118.203 222.312L118.34 224.312L123.366 221.44L124.494 223.286L127.725 223.133L131.314 228.21L129.828 230.966L130.904 232.517L130.648 234.441L128.135 238.159Z" fill="white"/>
<path d="M123.776 224.055L121.109 226.517L120.802 228.609L119.109 229.902L119.468 235.447L119.776 230.415L121.878 229.301L122.237 226.722L123.776 224.055Z" fill="#E0E0E0"/>
<path d="M118.203 222.312L116.904 225.568V228.62L117.554 225.466L118.34 224.312L118.203 222.312Z" fill="#E0E0E0"/>
<path d="M123.366 221.44L122.955 223.133L121.442 224.748L123.366 223.697L124.494 223.286L123.366 221.44Z" fill="#E0E0E0"/>
<path d="M127.725 223.132L127.853 226.389L125.263 230.183L124.494 233.825L125.802 230.363L129.212 227.517L129.655 225.863L127.725 223.132Z" fill="#E0E0E0"/>
<path d="M119.788 236.851L121.635 237.928L124.327 237.043L126.251 237.389L127.943 235.447L128.405 233.581L130.443 232.773L128.904 234.005L128.712 235.87L126.52 238.466L124.494 238.005L121.442 239.005L119.788 236.851Z" fill="#E0E0E0"/>
<path d="M224.345 75.6177C217.907 73.6563 210.396 73.4708 202.904 75.169C199.157 76.0167 195.393 77.2795 191.755 79.0148C188.11 80.7347 184.581 82.8928 181.228 85.3827C177.885 87.8894 174.717 90.7293 171.723 93.7988C168.744 96.883 165.944 100.199 163.291 103.66C160.661 107.139 158.123 110.726 155.777 114.452C154.585 116.302 153.376 118.147 152.271 120.06C151.153 121.963 149.976 123.835 148.94 125.788C144.619 133.498 140.79 141.484 137.523 149.553C134.271 157.63 131.578 165.784 129.431 173.807C127.286 181.832 125.669 189.722 124.548 197.284C123.465 204.853 122.858 212.082 122.566 218.794C123.131 212.097 123.975 204.909 125.257 197.398C126.576 189.893 128.352 182.079 130.617 174.136C132.883 166.194 135.655 158.129 138.947 150.135C142.254 142.149 146.084 134.241 150.372 126.59C151.4 124.651 152.567 122.794 153.673 120.902C154.765 119.002 155.959 117.168 157.135 115.327C159.449 111.619 161.944 108.05 164.517 104.589C167.113 101.146 169.844 97.8476 172.742 94.7739C175.653 91.7149 178.728 88.8792 181.972 86.362C185.229 83.8609 188.646 81.6811 192.191 79.9143C195.729 78.1328 199.4 76.8014 203.07 75.8669C210.41 73.9972 217.832 73.9223 224.345 75.6177Z" fill="#E0E0E0"/>
<path d="M172.222 86.8398C168.188 89.3031 163.874 92.7513 159.89 97.0339C155.892 101.303 152.216 106.361 149.066 111.714C142.766 122.453 138.452 134.149 135.146 142.988C138.812 134.284 143.298 122.682 149.564 112.007C152.697 106.683 156.307 101.634 160.209 97.3265C164.098 93.0054 168.291 89.4655 172.222 86.8398Z" fill="#E0E0E0"/>
<path d="M157.353 131.482C155.289 134.01 153.034 137.042 150.848 140.427C148.659 143.81 146.54 147.542 144.667 151.396C142.799 155.253 141.178 159.226 139.875 163.039C138.568 166.85 137.581 170.498 136.873 173.684C138.52 167.37 141.275 159.248 145.026 151.57C148.737 143.873 153.412 136.683 157.353 131.482Z" fill="#E0E0E0"/>
<path d="M118.208 203.129C117.358 206.953 116.758 212.07 116.691 217.204C116.61 222.338 117.062 227.47 117.8 231.317C117.837 227.398 117.779 222.309 117.858 217.221C117.926 212.133 118.131 207.047 118.208 203.129Z" fill="#E0E0E0"/>
<path d="M127.915 205.74C126.882 212.033 126.233 222.3 126.465 228.672C127.497 222.379 128.146 212.112 127.915 205.74Z" fill="#E0E0E0"/>
<path d="M121.299 181.938C120.357 184.917 119.321 189.85 118.986 192.956C119.928 189.977 120.964 185.044 121.299 181.938Z" fill="#E0E0E0"/>
<path d="M220.849 76.0996C216.348 76.0793 211.116 76.6463 205.745 78.1478C200.376 79.6332 194.886 82.0489 189.924 85.3046C184.964 88.5631 180.565 92.6406 177.068 96.9764C173.555 101.308 170.955 105.884 169.184 110.022C171.121 105.959 173.828 101.481 177.386 97.2382C180.93 92.9914 185.315 88.9908 190.227 85.7638C195.14 82.5403 200.554 80.1071 205.86 78.544C211.166 76.9655 216.351 76.2627 220.849 76.0996Z" fill="#E0E0E0"/>
<path d="M211.174 70.9828C207.645 70.5236 202.93 70.4564 198.305 71.1816C193.674 71.8767 189.197 73.3558 185.968 74.8517C189.255 73.4888 193.728 72.0888 198.337 71.3965C202.943 70.6748 207.629 70.6685 211.174 70.9828Z" fill="#E0E0E0"/>
</svg>
