<svg xmlns="http://www.w3.org/2000/svg" width="52" height="52" viewBox="0 0 52 52" fill="none">
  <g clip-path="url(#clip0_502_3870)">
    <path fill-rule="evenodd" clip-rule="evenodd" d="M38.9502 38.5538C31.9126 45.5914 20.5083 45.5914 13.4707 38.5538C6.45671 31.5398 6.45671 20.1356 13.4943 13.0979C20.5083 6.08395 31.9126 6.08395 38.9266 13.0979C45.9642 20.1356 45.9642 31.5398 38.9502 38.5538Z" fill="#26B023" fill-opacity="0.1"/>
    <path d="M30.2808 24.4022C30.1602 24.2817 30.0922 24.1182 30.0917 23.9477L30.0926 21.9558L28.1007 21.9567C27.9321 21.9537 27.7715 21.8847 27.6533 21.7645C27.5352 21.6443 27.469 21.4825 27.469 21.3139C27.469 21.1453 27.5352 20.9835 27.6533 20.8633C27.7715 20.7431 27.9321 20.6741 28.1007 20.6711L30.7353 20.6711C30.9044 20.6757 31.0652 20.7449 31.1848 20.8645C31.3043 20.984 31.3735 21.1449 31.3781 21.3139L31.3781 23.9486C31.3779 24.0756 31.3401 24.1998 31.2694 24.3053C31.1987 24.4109 31.0983 24.4931 30.9809 24.5417C30.8634 24.5902 30.7343 24.6029 30.6097 24.5781C30.4851 24.5532 30.3706 24.4921 30.2808 24.4022Z" fill="#26B023"/>
    <path d="M24.8723 27.176C24.7518 27.0554 24.684 26.8919 24.684 26.7214C24.684 26.5509 24.7518 26.3874 24.8723 26.2668L29.8726 21.2666C29.9931 21.146 30.1567 21.0783 30.3271 21.0783C30.4976 21.0783 30.6612 21.146 30.7817 21.2666C30.9023 21.3871 30.97 21.5507 30.97 21.7211C30.97 21.8916 30.9023 22.0552 30.7817 22.1757L25.7815 27.176C25.6609 27.2965 25.4974 27.3643 25.3269 27.3643C25.1564 27.3643 24.9929 27.2965 24.8723 27.176ZM23.0541 28.9942C22.9335 28.8737 22.8658 28.7102 22.8658 28.5397C22.8658 28.3692 22.9335 28.2057 23.0541 28.0851C23.1746 27.9646 23.3381 27.8968 23.5086 27.8968C23.6791 27.8968 23.8426 27.9646 23.9632 28.0851C24.0837 28.2057 24.1515 28.3692 24.1515 28.5397C24.1515 28.7102 24.0837 28.8737 23.9632 28.9942C23.8426 29.1148 23.6791 29.1825 23.5086 29.1825C23.3381 29.1825 23.1746 29.1148 23.0541 28.9942ZM21.2358 30.8125C21.1152 30.692 21.0475 30.5284 21.0475 30.358C21.0475 30.1875 21.1152 30.0239 21.2358 29.9034C21.3563 29.7828 21.5198 29.7151 21.6903 29.7151C21.8608 29.7151 22.0244 29.7828 22.1449 29.9034C22.2655 30.0239 22.3332 30.1875 22.3332 30.358C22.3332 30.5284 22.2655 30.692 22.1449 30.8125C22.0244 30.9331 21.8608 31.0008 21.6903 31.0008C21.5198 31.0008 21.3563 30.9331 21.2358 30.8125Z" fill="#26B023"/>
  </g>
  <defs>
    <clipPath id="clip0_502_3870">
      <rect width="36" height="36" fill="white" transform="translate(26.2104 0.381836) rotate(45)"/>
    </clipPath>
  </defs>
</svg>