<svg width="32" height="32" viewBox="0 0 32 32" fill="none" xmlns="http://www.w3.org/2000/svg">
<path d="M11.667 12.334C12.7716 12.334 13.667 11.4386 13.667 10.334C13.667 9.22941 12.7716 8.33398 11.667 8.33398C10.5624 8.33398 9.66699 9.22941 9.66699 10.334C9.66699 11.4386 10.5624 12.334 11.667 12.334Z" stroke="black" stroke-width="2"/>
<path d="M17.5 3H8C5.23857 3 3 5.23857 3 8V23.6667C3 26.4281 5.23857 28.6667 8 28.6667H23.6667C26.4281 28.6667 28.6667 26.4281 28.6667 23.6667V17.5V16.4379C28.6667 15.7307 28.3857 15.0524 27.8856 14.5523L26.394 13.0607C25.8082 12.4749 24.8585 12.4749 24.2727 13.0607L17.2273 20.106C16.6415 20.6918 15.6918 20.6918 15.106 20.106L13.2273 18.2273C12.6415 17.6415 11.6918 17.6415 11.106 18.2273L3.66667 25.6667" stroke="black" stroke-width="2" stroke-linecap="round"/>
<path d="M23.7959 6.43287C23.865 6.21237 23.9864 6.01184 24.1498 5.84847L27.844 2.15419C28.297 1.70121 29.0314 1.70121 29.4844 2.15419C29.9374 2.60716 29.9374 3.3416 29.4844 3.79457L25.7902 7.48884C25.6268 7.65224 25.4262 7.77364 25.2057 7.84267L23.3333 8.4289C23.2573 8.45267 23.1859 8.3813 23.2097 8.30537L23.7959 6.43287Z" stroke="black" stroke-width="2"/>
</svg>
