<svg xmlns="http://www.w3.org/2000/svg" width="41" height="41" viewBox="0 0 41 41" fill="none">
  <path d="M20.2451 5.69434C24.1032 5.69825 27.8022 7.23283 30.5303 9.96094C33.1731 12.6038 34.6959 16.1576 34.792 19.8848L34.7969 20.2461C34.7968 23.1238 33.9435 25.9373 32.3447 28.3301C30.7459 30.7229 28.4732 32.5881 25.8145 33.6895C23.1556 34.7908 20.2289 35.079 17.4062 34.5176C14.5838 33.9561 11.991 32.57 9.95605 30.5352C7.92103 28.5001 6.53509 25.9066 5.97363 23.084C5.41227 20.2614 5.70046 17.3355 6.80176 14.6768C7.9031 12.018 9.76827 9.74536 12.1611 8.14648C14.4046 6.64746 17.0177 5.80367 19.707 5.7041L20.2451 5.69434ZM20.2451 12.9189C19.861 12.9191 19.4923 13.0721 19.2207 13.3438C18.9491 13.6155 18.7969 13.984 18.7969 14.3682V18.7969H14.3682C13.984 18.7969 13.6155 18.9491 13.3438 19.2207C13.0721 19.4923 12.9191 19.861 12.9189 20.2451C12.9189 20.6294 13.072 20.9988 13.3438 21.2705C13.6155 21.542 13.984 21.6943 14.3682 21.6943H18.7969V26.123C18.7969 26.5072 18.9491 26.8757 19.2207 27.1475C19.4923 27.4191 19.861 27.5722 20.2451 27.5723C20.6294 27.5723 20.9988 27.4192 21.2705 27.1475C21.5421 26.8758 21.6943 26.5072 21.6943 26.123V21.6943H26.123C26.5072 21.6943 26.8758 21.5421 27.1475 21.2705C27.4192 20.9988 27.5723 20.6294 27.5723 20.2451C27.5722 19.861 27.4191 19.4923 27.1475 19.2207C26.8757 18.9491 26.5072 18.7969 26.123 18.7969H21.6943V14.3682C21.6943 13.984 21.542 13.6155 21.2705 13.3438C20.9988 13.072 20.6294 12.9189 20.2451 12.9189Z" stroke="#222222"/>
</svg>