<svg xmlns="http://www.w3.org/2000/svg" width="18" height="19" viewBox="0 0 18 19" fill="none">
  <path d="M1.5 4.49935H3.16667M3.16667 4.49935H16.5M3.16667 4.49935L3.16667 16.166C3.16667 16.608 3.34226 17.032 3.65482 17.3445C3.96738 17.6571 4.39131 17.8327 4.83333 17.8327H13.1667C13.6087 17.8327 14.0326 17.6571 14.3452 17.3445C14.6577 17.032 14.8333 16.608 14.8333 16.166V4.49935M5.66667 4.49935V2.83268C5.66667 2.39065 5.84226 1.96673 6.15482 1.65417C6.46738 1.34161 6.89131 1.16602 7.33333 1.16602H10.6667C11.1087 1.16602 11.5326 1.34161 11.8452 1.65417C12.1577 1.96673 12.3333 2.39065 12.3333 2.83268V4.49935M7.33333 8.66602V13.666M10.6667 8.66602V13.666" stroke="#FF481F" stroke-width="2" stroke-linecap="round" stroke-linejoin="round"/>
</svg>