<svg xmlns="http://www.w3.org/2000/svg" width="22" height="22" viewBox="0 0 22 22" fill="none">
  <path d="M4.5835 16.5001H8.47016C8.5908 16.5008 8.71039 16.4777 8.82208 16.4321C8.93376 16.3864 9.03534 16.3192 9.121 16.2343L15.4643 9.88177L18.0677 7.33344C18.1536 7.24823 18.2218 7.14684 18.2683 7.03514C18.3148 6.92343 18.3388 6.80362 18.3388 6.68261C18.3388 6.5616 18.3148 6.44178 18.2683 6.33008C18.2218 6.21837 18.1536 6.11699 18.0677 6.03177L14.181 2.09927C14.0958 2.01336 13.9944 1.94516 13.8827 1.89862C13.771 1.85209 13.6512 1.82812 13.5302 1.82812C13.4092 1.82813 13.2893 1.85209 13.1776 1.89862C13.0659 1.94516 12.9645 2.01336 12.8793 2.09927L10.2943 4.69344L3.93266 11.0459C3.8477 11.1316 3.78049 11.2332 3.73487 11.3449C3.68925 11.4565 3.66613 11.5761 3.66683 11.6968V15.5834C3.66683 15.8266 3.76341 16.0597 3.93531 16.2316C4.10722 16.4035 4.34038 16.5001 4.5835 16.5001ZM13.5302 4.04261L16.1243 6.63677L14.8227 7.93844L12.2285 5.34427L13.5302 4.04261ZM5.50016 12.0726L10.936 6.63677L13.5302 9.23094L8.09433 14.6668H5.50016V12.0726ZM19.2502 18.3334H2.75016C2.50705 18.3334 2.27389 18.43 2.10198 18.6019C1.93007 18.7738 1.8335 19.007 1.8335 19.2501C1.8335 19.4932 1.93007 19.7264 2.10198 19.8983C2.27389 20.0702 2.50705 20.1668 2.75016 20.1668H19.2502C19.4933 20.1668 19.7264 20.0702 19.8983 19.8983C20.0703 19.7264 20.1668 19.4932 20.1668 19.2501C20.1668 19.007 20.0703 18.7738 19.8983 18.6019C19.7264 18.43 19.4933 18.3334 19.2502 18.3334Z" fill="#8B8B8B"/>
</svg>