<svg xmlns="http://www.w3.org/2000/svg" width="24" height="24" viewBox="0 0 24 24" fill="none">
  <g clip-path="url(#clip0_440_3947)">
    <path d="M4.8418 13.6578V7.69176C4.84167 7.49583 4.88017 7.30181 4.95512 7.12079C5.03007 6.93977 5.13998 6.7753 5.27856 6.63681C5.41715 6.49832 5.58168 6.38852 5.76275 6.3137C5.94382 6.23887 6.13788 6.20049 6.3338 6.20076H7.8248M4.8418 10.6748H7.0788M10.2088 13.6578V7.69176C10.2036 7.49264 10.2384 7.29451 10.311 7.10904C10.3837 6.92357 10.4927 6.75453 10.6317 6.61187C10.7707 6.46922 10.9369 6.35584 11.1204 6.27843C11.3039 6.20102 11.5011 6.16113 11.7003 6.16113C11.8995 6.16113 12.0966 6.20102 12.2802 6.27843C12.4637 6.35584 12.6299 6.46922 12.7689 6.61187C12.9079 6.75453 13.0169 6.92357 13.0896 7.10904C13.1622 7.29451 13.197 7.49264 13.1918 7.69176V13.6578M10.2088 10.6748H13.1918M17.6658 13.6578L19.1578 15.1488M19.1578 12.1658C19.163 12.3649 19.1282 12.563 19.0556 12.7485C18.9829 12.9339 18.8739 13.103 18.7349 13.2456C18.5959 13.3883 18.4297 13.5017 18.2462 13.5791C18.0626 13.6565 17.8655 13.6964 17.6663 13.6964C17.4671 13.6964 17.2699 13.6565 17.0864 13.5791C16.9029 13.5017 16.7367 13.3883 16.5977 13.2456C16.4587 13.103 16.3497 12.9339 16.277 12.7485C16.2044 12.563 16.1696 12.3649 16.1748 12.1658V7.69176C16.1696 7.49264 16.2044 7.29451 16.277 7.10904C16.3497 6.92357 16.4587 6.75453 16.5977 6.61187C16.7367 6.46922 16.9029 6.35584 17.0864 6.27843C17.2699 6.20102 17.4671 6.16113 17.6663 6.16113C17.8655 6.16113 18.0626 6.20102 18.2462 6.27843C18.4297 6.35584 18.5959 6.46922 18.7349 6.61187C18.8739 6.75453 18.9829 6.92357 19.0556 7.10904C19.1282 7.29451 19.163 7.49264 19.1578 7.69176V12.1658Z" stroke="black" stroke-width="1.5" stroke-linecap="round" stroke-linejoin="round"/>
    <path d="M22.2 2.57129H1.8C1.52116 2.57235 1.25409 2.68386 1.05729 2.88141C0.860495 3.07896 0.749998 3.34644 0.75 3.62529V17.2133C0.749998 17.4921 0.860495 17.7596 1.05729 17.9572C1.25409 18.1547 1.52116 18.2662 1.8 18.2673H4.243C4.0227 19.4109 3.54912 20.4906 2.857 21.4273C5.907 21.4713 7.837 20.2913 8.995 18.2673H22.2C22.4795 18.2673 22.7476 18.1562 22.9453 17.9586C23.143 17.7609 23.254 17.4928 23.254 17.2133V3.62529C23.254 3.34575 23.143 3.07766 22.9453 2.88C22.7476 2.68234 22.4795 2.57129 22.2 2.57129Z" stroke="black" stroke-width="1.5" stroke-linecap="round" stroke-linejoin="round"/>
  </g>
  <defs>
    <clipPath id="clip0_440_3947">
      <rect width="24" height="24" fill="white"/>
    </clipPath>
  </defs>
</svg>