<svg xmlns="http://www.w3.org/2000/svg" width="24" height="24" viewBox="0 0 24 24" fill="none">
  <g clip-path="url(#clip0_153_2523)">
    <path d="M13.3297 0.384845C13.5391 0.5277 13.7122 0.702387 13.89 0.882174C13.9314 0.923238 13.9727 0.964302 14.0153 1.00661C14.129 1.11964 14.2422 1.23308 14.3552 1.34671C14.4777 1.46956 14.6006 1.59187 14.7235 1.71425C14.9638 1.95366 15.2035 2.19358 15.4431 2.43369C15.6379 2.62891 15.8329 2.82395 16.028 3.01886C16.0558 3.04665 16.0836 3.07445 16.1123 3.10309C16.1688 3.15957 16.2254 3.21604 16.2819 3.27252C16.8114 3.80146 17.3403 4.33098 17.869 4.86069C18.3221 5.31467 18.7758 5.76815 19.2297 6.22127C19.7576 6.74816 20.2852 7.27534 20.8123 7.80301C20.8686 7.85934 20.9248 7.91566 20.9811 7.97198C21.0088 7.99969 21.0365 8.0274 21.065 8.05595C21.2595 8.25068 21.4543 8.4452 21.6492 8.63964C21.8869 8.87676 22.1242 9.11423 22.3611 9.35212C22.4818 9.47336 22.6027 9.59445 22.724 9.71514C22.8558 9.84623 22.9868 9.97805 23.1178 10.1099C23.1559 10.1476 23.1939 10.1853 23.2332 10.2241C23.7326 10.7304 24.0159 11.286 24.0232 12.0002C24.0195 12.3592 23.9818 12.6625 23.8123 12.9845C23.793 13.0242 23.7736 13.0638 23.7537 13.1046C23.4627 13.6469 22.9951 13.9711 22.4236 14.1681C22.1691 14.2247 21.9273 14.2527 21.6674 14.2513C21.6113 14.251 21.6113 14.251 21.554 14.2508C21.5258 14.2506 21.4976 14.2504 21.4686 14.2502C21.4687 14.3055 21.4687 14.3055 21.4688 14.3619C21.4709 15.2615 21.4724 16.161 21.4734 17.0605C21.4739 17.4956 21.4745 17.9306 21.4756 18.3656C21.4766 18.745 21.4772 19.1244 21.4774 19.5037C21.4775 19.7044 21.4778 19.9051 21.4785 20.1058C21.4791 20.2951 21.4793 20.4844 21.4792 20.6738C21.4792 20.7428 21.4794 20.8119 21.4797 20.881C21.4843 21.8055 21.3334 22.599 20.6951 23.3C19.9927 23.9715 19.1959 24.0219 18.2756 24.0188C18.1749 24.0189 18.0743 24.0191 17.9736 24.0192C17.7636 24.0194 17.5536 24.0191 17.3436 24.0185C17.0746 24.0177 16.8055 24.0181 16.5365 24.019C16.3291 24.0195 16.1216 24.0193 15.9142 24.019C15.815 24.0189 15.7157 24.019 15.6165 24.0193C15.4781 24.0197 15.3397 24.0191 15.2012 24.0183C15.1604 24.0186 15.1195 24.0189 15.0774 24.0192C14.8562 24.0169 14.7109 24.0024 14.5311 23.8595C14.3581 23.6626 14.2909 23.5552 14.2902 23.2952C14.2899 23.2452 14.2897 23.1952 14.2894 23.1437C14.2894 23.0886 14.2893 23.0334 14.2893 22.9767C14.289 22.9188 14.2888 22.861 14.2886 22.8013C14.2881 22.6753 14.2876 22.5493 14.2873 22.4232C14.2868 22.2236 14.2859 22.024 14.2848 21.8244C14.2819 21.2568 14.2794 20.6892 14.2779 20.1216C14.277 19.8082 14.2756 19.4948 14.2737 19.1815C14.2728 19.0158 14.272 18.85 14.2719 18.6843C14.2718 18.4991 14.2706 18.3138 14.2693 18.1286C14.2695 18.0741 14.2696 18.0197 14.2698 17.9636C14.2652 17.5216 14.1931 17.11 13.8748 16.7814C13.6255 16.5971 13.3986 16.5416 13.0943 16.5395C13.0411 16.539 12.9879 16.5386 12.933 16.5381C12.8757 16.5379 12.8184 16.5377 12.7593 16.5375C12.7001 16.5372 12.6409 16.537 12.58 16.5367C12.4547 16.5363 12.3294 16.5359 12.2041 16.5358C12.0443 16.5355 11.8847 16.5344 11.725 16.533C11.5717 16.532 11.4184 16.5319 11.2652 16.5316C11.2082 16.5311 11.1513 16.5305 11.0926 16.5299C10.7236 16.5309 10.4593 16.5704 10.1395 16.7638C9.87132 17.0392 9.74416 17.3544 9.74365 17.7347C9.74346 17.7855 9.74327 17.8362 9.74308 17.8885C9.7431 17.9439 9.74313 17.9993 9.74315 18.0564C9.74299 18.115 9.74283 18.1735 9.74266 18.2339C9.74231 18.3611 9.74205 18.4884 9.74189 18.6156C9.74162 18.8169 9.74084 19.0183 9.73996 19.2196C9.73966 19.2886 9.73936 19.3576 9.73907 19.4265C9.73892 19.4611 9.73877 19.4956 9.73862 19.5312C9.73665 19.9998 9.7351 20.4684 9.73452 20.937C9.73413 21.2532 9.73308 21.5695 9.73127 21.8858C9.73035 22.053 9.72976 22.2203 9.73 22.3875C9.73026 22.5742 9.72907 22.7608 9.72777 22.9474C9.72808 23.0026 9.72839 23.0578 9.72871 23.1147C9.72544 23.3997 9.72087 23.5959 9.51543 23.8127C9.28072 24.0196 9.08772 24.0272 8.78948 24.0244C8.74554 24.0247 8.7016 24.0251 8.65632 24.0254C8.5114 24.0262 8.36652 24.0257 8.2216 24.0251C8.12036 24.0252 8.01912 24.0254 7.91787 24.0256C7.70564 24.0259 7.49343 24.0255 7.2812 24.0246C7.01042 24.0235 6.73968 24.0241 6.4689 24.0253C6.2597 24.0259 6.05051 24.0257 5.8413 24.0252C5.74155 24.0251 5.6418 24.0253 5.54205 24.0257C4.54113 24.0291 4.54113 24.0291 4.07793 23.8127C4.03951 23.7949 4.00109 23.7772 3.96151 23.759C3.26245 23.4188 2.8904 22.8126 2.61308 22.1193C2.50453 21.7032 2.52463 21.2701 2.52573 20.8435C2.52574 20.7714 2.52574 20.6993 2.52571 20.6272C2.5257 20.4325 2.52597 20.2379 2.5263 20.0433C2.52659 19.8394 2.52662 19.6356 2.52667 19.4318C2.52682 19.0463 2.5272 18.6609 2.52768 18.2754C2.5282 17.8364 2.52846 17.3973 2.52869 16.9583C2.52918 16.0556 2.53001 15.1529 2.53105 14.2502C2.49922 14.2504 2.46739 14.2507 2.43459 14.2509C2.39264 14.2511 2.3507 14.2514 2.30748 14.2516C2.26598 14.2518 2.22448 14.2521 2.18172 14.2524C1.55156 14.2407 1.02361 13.9922 0.574386 13.5648C0.11183 13.0774 -0.0300887 12.5356 -0.0221485 11.8767C0.00676136 11.0766 0.432955 10.5603 0.983288 10.0141C1.02405 9.9731 1.06481 9.93209 1.10681 9.88983C1.21864 9.77745 1.33078 9.66538 1.44306 9.55344C1.56461 9.43212 1.68576 9.31039 1.80695 9.18871C2.04388 8.95098 2.28119 8.71362 2.51865 8.47642C2.71172 8.28354 2.90466 8.09053 3.09751 7.89743C3.13879 7.85609 3.13879 7.85609 3.18091 7.81391C3.23684 7.75792 3.29277 7.70192 3.34869 7.64592C3.87215 7.12182 4.39605 6.59817 4.92009 6.07467C5.39897 5.59625 5.87731 5.11731 6.3554 4.6381C6.84714 4.14521 7.33923 3.65268 7.8317 3.16052C8.10785 2.88454 8.38386 2.60842 8.65951 2.33194C8.89407 2.0967 9.12896 1.86178 9.36427 1.62729C9.48418 1.50777 9.60394 1.38811 9.7233 1.26803C9.85295 1.13761 9.98333 1.00793 10.1138 0.8783C10.151 0.840622 10.1882 0.802944 10.2266 0.764125C11.1153 -0.113019 12.2651 -0.262062 13.3297 0.384845Z" fill="#3085FE"/>
  </g>
  <defs>
    <clipPath id="clip0_153_2523">
      <rect width="24" height="24" fill="white"/>
    </clipPath>
  </defs>
</svg>