<svg width="390" height="390" viewBox="0 0 390 390" fill="none" xmlns="http://www.w3.org/2000/svg">
<path d="M350.923 310.826H325.088V311.021H350.923V310.826Z" fill="#EBEBEB"/>
<path d="M258.352 312.942H251.571V313.137H258.352V312.942Z" fill="#EBEBEB"/>
<path d="M324.307 303.583H309.337V303.778H324.307V303.583Z" fill="#EBEBEB"/>
<path d="M74.6085 304.893H40.918V305.088H74.6085V304.893Z" fill="#EBEBEB"/>
<path d="M86.4935 304.893H81.5537V305.088H86.4935V304.893Z" fill="#EBEBEB"/>
<path d="M175.615 308.187H102.547V308.382H175.615V308.187Z" fill="#EBEBEB"/>
<path d="M185.953 263.484H35.3355C32.8809 263.484 30.8833 261.487 30.8833 259.032V47.315C30.8833 44.8604 32.8809 42.8628 35.3355 42.8628H185.953C188.407 42.8628 190.404 44.8604 190.404 47.315V259.032C190.404 261.487 188.407 263.484 185.953 263.484ZM35.3355 43.0586C32.9877 43.0586 31.0783 44.968 31.0783 47.3158V259.033C31.0783 261.381 32.9877 263.29 35.3355 263.29H185.953C188.3 263.29 190.209 261.381 190.209 259.033V47.315C190.209 44.968 188.3 43.0578 185.953 43.0578L35.3355 43.0586Z" fill="#EBEBEB"/>
<path d="M354.664 263.484H204.047C201.593 263.484 199.596 261.487 199.596 259.032V47.315C199.596 44.8604 201.593 42.8628 204.047 42.8628H354.664C357.12 42.8628 359.117 44.8604 359.117 47.315V259.032C359.117 261.487 357.119 263.484 354.664 263.484ZM204.047 43.0586C201.7 43.0586 199.791 44.968 199.791 47.3158V259.033C199.791 261.381 201.7 263.29 204.047 263.29H354.664C357.012 263.29 358.922 261.381 358.922 259.033V47.315C358.922 44.968 357.012 43.0578 354.664 43.0578L204.047 43.0586Z" fill="#EBEBEB"/>
<path d="M390 298.271H0V298.466H390V298.271Z" fill="#EBEBEB"/>
<path d="M93.0781 245.505C92.419 237.972 84.729 235.152 75.6162 235.949C66.5043 236.746 59.4203 240.859 60.0794 248.393L93.0781 245.505Z" fill="#FFC253" fill-opacity="0.5"/>
<path d="M75.3151 232.506C79.5443 232.137 80.8944 228.564 80.5239 224.335C80.1542 220.106 78.2042 216.822 73.9751 217.193C69.7459 217.562 68.3957 221.135 68.7662 225.364C69.1359 229.593 71.0859 232.877 75.3151 232.506Z" fill="#FFC253" fill-opacity="0.5"/>
<path d="M265.278 84.9972C265.482 87.3294 263.757 89.3855 261.425 89.5891C259.092 89.7935 257.036 88.0681 256.833 85.7359C256.628 83.4037 258.354 81.3476 260.686 81.1433C263.018 80.9397 265.074 82.665 265.278 84.9972Z" fill="#F5F5F5"/>
<path d="M288.735 82.9455C288.939 85.2777 287.214 87.3338 284.882 87.5373C282.549 87.7417 280.493 86.0163 280.289 83.6841C280.085 81.3519 281.81 79.2959 284.142 79.0915C286.475 78.8879 288.53 80.6133 288.735 82.9455Z" fill="#F5F5F5"/>
<path d="M312.192 80.8931C312.396 83.2253 310.671 85.2814 308.339 85.4857C306.006 85.6901 303.95 83.9647 303.746 81.6325C303.542 79.3003 305.267 77.2442 307.599 77.0399C309.931 76.8355 311.987 78.5609 312.192 80.8931Z" fill="#F5F5F5"/>
<path d="M267.37 108.907C267.574 111.239 265.849 113.295 263.517 113.499C261.184 113.704 259.128 111.978 258.924 109.646C258.72 107.314 260.445 105.258 262.777 105.054C265.11 104.849 267.166 106.574 267.37 108.907Z" fill="#F5F5F5"/>
<path d="M290.827 106.854C291.031 109.186 289.306 111.242 286.974 111.447C284.641 111.651 282.585 109.926 282.381 107.593C282.177 105.261 283.902 103.205 286.234 103.001C288.566 102.797 290.622 104.522 290.827 106.854Z" fill="#F5F5F5"/>
<path d="M314.284 104.802C314.488 107.134 312.763 109.19 310.431 109.394C308.098 109.598 306.042 107.873 305.838 105.54C305.634 103.208 307.359 101.152 309.691 100.948C312.023 100.745 314.079 102.47 314.284 104.802Z" fill="#F5F5F5"/>
<path d="M269.462 132.815C269.666 135.148 267.941 137.204 265.609 137.408C263.276 137.612 261.22 135.887 261.017 133.555C260.812 131.223 262.538 129.167 264.87 128.962C267.201 128.758 269.257 130.483 269.462 132.815Z" fill="#F5F5F5"/>
<path d="M292.919 130.763C293.123 133.095 291.398 135.151 289.066 135.356C286.733 135.56 284.677 133.835 284.473 131.502C284.269 129.17 285.994 127.114 288.326 126.911C290.658 126.705 292.714 128.431 292.919 130.763Z" fill="#F5F5F5"/>
<path d="M316.375 128.711C316.579 131.043 314.854 133.099 312.522 133.303C310.189 133.506 308.133 131.782 307.929 129.45C307.725 127.117 309.45 125.061 311.782 124.858C314.115 124.653 316.171 126.379 316.375 128.711Z" fill="#F5F5F5"/>
<path d="M311.307 130.088L263.114 134.304L305.844 82.3822L262.063 86.2127C261.551 86.2572 261.1 85.8789 261.056 85.3672C261.011 84.8555 261.39 84.4047 261.901 84.3602L310.094 80.1436L267.364 132.066L311.146 128.235C311.658 128.191 312.108 128.569 312.153 129.08C312.197 129.592 311.819 130.043 311.307 130.088Z" fill="#FFC253"/>
<path d="M312.046 222.773C311.887 222.314 311.476 221.973 310.991 221.941C308.78 221.793 306.913 220.966 305.435 219.482C303.507 217.546 302.374 214.601 302.191 211.104C302.156 210.453 301.61 209.945 300.958 209.941C300.236 209.937 299.66 210.547 299.699 211.267C299.922 215.369 301.309 218.876 303.666 221.244C305.507 223.093 307.882 224.176 310.589 224.413C310.636 224.417 310.697 224.422 310.767 224.428C311.665 224.499 312.341 223.623 312.046 222.773Z" fill="#FFC253"/>
<path d="M309.554 237.744C299.216 236.839 291.761 229.794 289.402 218.799C289.251 218.098 289.698 217.407 290.405 217.285C291.058 217.172 291.696 217.585 291.834 218.233C293.948 228.121 300.584 234.453 309.771 235.258C319.846 236.139 330.667 229.51 332.605 212.8C332.684 212.123 333.274 211.623 333.953 211.682C334.648 211.743 335.169 212.363 335.087 213.056C333.23 228.811 322.871 238.909 309.554 237.744Z" fill="#FFC253"/>
<path d="M290.051 207.841C289.356 207.78 288.835 207.16 288.917 206.467C290.775 190.711 301.135 180.613 314.451 181.778C326.119 182.799 333.986 191.534 335.211 204.692C335.276 205.387 334.737 205.993 334.04 206.034H334.038C333.359 206.075 332.785 205.561 332.721 204.884C331.596 193.029 324.595 185.171 314.232 184.264C304.157 183.383 293.336 190.011 291.398 206.722C291.32 207.4 290.729 207.9 290.051 207.841Z" fill="#FFC253"/>
<path d="M310.062 231.061C308.14 230.893 306.337 230.444 304.683 229.721C304.01 229.427 303.732 228.617 304.084 227.972C304.39 227.409 305.074 227.166 305.66 227.424C307.215 228.107 308.934 228.509 310.787 228.61C318.429 229.048 326.494 223.636 327.284 210.558C327.771 202.504 325.012 195.998 319.861 192.886C319.308 192.553 319.103 191.854 319.388 191.276C319.712 190.618 320.532 190.376 321.159 190.754C327.12 194.353 330.321 201.696 329.776 210.709C329.014 223.319 321.146 231.705 310.643 231.104C310.449 231.092 310.254 231.078 310.062 231.061Z" fill="#FFC253"/>
<path d="M298.947 223.281C298.344 223.694 297.518 223.501 297.152 222.868C294.941 219.043 293.906 214.111 294.227 208.814C294.956 196.751 302.188 188.553 312.009 188.391C312.738 188.38 313.327 188.989 313.285 189.717V189.72C313.248 190.368 312.72 190.878 312.071 190.89C304.788 191.034 297.471 196.539 296.72 208.965C296.428 213.788 297.351 218.24 299.329 221.643C299.653 222.203 299.482 222.916 298.947 223.281Z" fill="#FFC253"/>
<path d="M316.001 222.262C315.747 221.684 315.969 221.016 316.511 220.69C319.791 218.715 321.805 214.57 321.84 209.574C321.867 205.572 320.706 202.187 318.569 200.042C316.922 198.386 314.792 197.553 312.239 197.558C308.393 197.568 305.28 199.675 303.554 203.382C303.283 203.966 302.607 204.242 302.003 204.02C301.316 203.767 300.989 202.975 301.299 202.312C303.433 197.758 307.437 195.074 312.232 195.061C315.429 195.056 318.233 196.166 320.338 198.28C322.948 200.9 324.368 204.917 324.336 209.59C324.296 215.486 321.812 220.428 317.767 222.847C317.131 223.228 316.3 222.941 316.001 222.262Z" fill="#FFC253"/>
<path d="M307.015 213.091C306.306 213.376 305.513 212.964 305.331 212.221C305.248 211.883 305.18 211.536 305.126 211.177C304.42 206.51 306.929 202.445 310.963 201.725C313.044 201.351 314.901 201.841 316.32 203.108C316.895 203.622 316.851 204.54 316.223 204.991L316.145 205.046C315.672 205.384 315.049 205.308 314.608 204.929C313.762 204.203 312.687 203.952 311.402 204.182C308.328 204.732 307.159 207.93 307.595 210.804C307.637 211.084 307.69 211.355 307.754 211.616C307.902 212.228 307.599 212.855 307.015 213.091Z" fill="#FFC253"/>
<path d="M311.14 217.893C311.137 217.893 311.133 217.893 311.13 217.893C310.269 217.816 309.794 216.852 310.253 216.12L310.359 215.95C310.589 215.584 311 215.382 311.432 215.412C311.802 215.437 312.193 215.414 312.603 215.34C315.287 214.86 316.519 212.361 316.498 209.821C316.492 209.187 316.931 208.639 317.558 208.545C318.29 208.434 318.982 208.979 318.996 209.72C319.07 213.79 316.674 217.149 313.042 217.798C312.387 217.915 311.75 217.947 311.14 217.893Z" fill="#FFC253"/>
<path d="M311.694 213.285C310.365 213.169 309.374 212.273 309.015 210.995C308.807 210.254 309.428 209.536 310.194 209.603L310.48 209.628C310.925 209.667 311.292 209.972 311.44 210.393C311.512 210.599 311.651 210.775 311.911 210.798C312.511 210.85 312.616 209.989 312.632 209.816C312.643 209.693 312.668 209.215 312.464 208.933C312.263 208.657 312.126 208.341 312.156 208.001C312.253 206.891 313.656 206.445 314.363 207.306C314.926 207.991 315.214 208.95 315.119 210.034C314.94 212.075 313.5 213.443 311.694 213.285Z" fill="#FFC253"/>
<path d="M288.236 185.37C287.549 185.31 287.041 184.704 287.102 184.017L288.048 173.202L298.863 174.148C299.55 174.208 300.058 174.813 299.998 175.5C299.938 176.188 299.333 176.695 298.645 176.635L290.317 175.907L289.589 184.235C289.529 184.922 288.923 185.43 288.236 185.37Z" fill="#F0F0F0"/>
<path d="M339.66 189.869C338.973 189.809 338.465 189.203 338.525 188.516L339.254 180.188L330.926 179.46C330.239 179.399 329.731 178.794 329.791 178.107C329.851 177.42 330.456 176.912 331.143 176.972L341.959 177.918L341.013 188.734C340.953 189.421 340.347 189.929 339.66 189.869Z" fill="#F0F0F0"/>
<path d="M335.827 248.017L325.011 247.071C324.324 247.011 323.816 246.406 323.876 245.718C323.936 245.031 324.541 244.523 325.229 244.583L333.557 245.312L334.285 236.984C334.345 236.297 334.951 235.789 335.638 235.849C336.325 235.909 336.833 236.514 336.773 237.202L335.827 248.017Z" fill="#F0F0F0"/>
<path d="M292.73 244.247L281.915 243.3L282.861 232.485C282.921 231.798 283.526 231.29 284.213 231.35C284.9 231.41 285.408 232.015 285.348 232.703L284.62 241.031L292.948 241.759C293.635 241.819 294.143 242.424 294.083 243.112C294.022 243.799 293.417 244.307 292.73 244.247Z" fill="#F0F0F0"/>
<path d="M58.2893 220.839C57.8674 220.875 57.4945 220.563 57.4579 220.141L56.876 213.491L63.5255 212.909C63.9482 212.873 64.3203 213.185 64.357 213.607C64.3936 214.029 64.0816 214.402 63.6589 214.439L58.5382 214.886L58.9859 220.007C59.0241 220.43 58.7113 220.802 58.2893 220.839Z" fill="#FFC253"/>
<path d="M89.9074 218.072C89.4854 218.109 89.1126 217.797 89.0759 217.374L88.6282 212.254L83.5075 212.701C83.0855 212.738 82.7127 212.426 82.676 212.003C82.6394 211.581 82.9514 211.208 83.3741 211.172L90.0236 210.59L90.6055 217.239C90.6422 217.663 90.3302 218.036 89.9074 218.072Z" fill="#FFC253"/>
<path d="M93.1834 246.706L86.5339 247.288C86.1119 247.325 85.739 247.013 85.7024 246.59C85.6657 246.168 85.9777 245.795 86.4005 245.759L91.5212 245.311L91.0735 240.19C91.0368 239.768 91.3488 239.396 91.7716 239.359C92.1935 239.322 92.5664 239.634 92.603 240.057L93.1834 246.706Z" fill="#FFC253"/>
<path d="M66.6852 249.024L60.0357 249.606L59.4539 242.956C59.4172 242.534 59.7292 242.161 60.152 242.125C60.5739 242.088 60.9468 242.4 60.9834 242.823L61.4312 247.943L66.5519 247.496C66.9738 247.459 67.3467 247.771 67.3833 248.194C67.42 248.615 67.1072 248.987 66.6852 249.024Z" fill="#FFC253"/>
<path d="M89.3747 109.94L63.9225 112.167L63.4015 106.211C62.8609 100.031 67.4481 94.5651 73.6265 94.0246C79.8056 93.4841 85.2719 98.0712 85.8124 104.25L86.1151 107.71L89.7873 107.389L89.4847 103.928C88.7671 95.7242 81.5092 89.6348 73.3051 90.3524C65.1011 91.07 59.0116 98.3279 59.7292 106.532L60.2534 112.522C57.2917 113.1 55.1834 115.831 55.4517 118.903L57.2699 139.685C57.5577 142.971 60.4546 145.402 63.7408 145.115L92.2342 142.622C95.5203 142.335 97.9508 139.438 97.6637 136.152L95.8456 115.37C95.5577 112.083 92.6608 109.652 89.3747 109.94ZM78.5631 125.953L79.1895 133.109C79.2924 134.284 78.4235 135.319 77.2488 135.422C76.0741 135.525 75.0391 134.656 74.9361 133.481L74.3098 126.325C73.3753 125.75 72.7084 124.764 72.6055 123.587C72.4323 121.609 73.8956 119.866 75.8729 119.693C77.8502 119.52 79.5935 120.983 79.7666 122.96C79.8688 124.137 79.3829 125.224 78.5631 125.953Z" fill="#EBEBEB"/>
<path d="M132.947 121.987L130.374 117.792C128.98 117.984 127.84 117.984 126.446 117.792L123.873 121.987L123.379 121.856C121.721 121.415 120.121 120.75 118.625 119.882L118.182 119.625L119.274 115.072C119.362 114.703 119.732 114.476 120.101 114.564C120.47 114.652 120.697 115.023 120.608 115.392L119.757 118.944C120.868 119.549 122.036 120.034 123.241 120.391L125.754 116.293L126.209 116.367C127.666 116.605 129.152 116.605 130.609 116.367L131.064 116.293L133.577 120.391C134.782 120.033 135.95 119.549 137.062 118.944L135.943 114.275L136.317 114.007C137.338 113.274 138.247 112.407 139.028 111.427C139.26 111.135 139.672 111.067 139.974 111.284C140.288 111.51 140.361 111.954 140.122 112.257C139.354 113.226 138.473 114.093 137.491 114.845L138.637 119.625L138.196 119.882C136.7 120.75 135.1 121.415 133.442 121.856L132.947 121.987ZM117.175 112.829C116.959 112.581 116.75 112.327 116.55 112.066L111.769 113.211L111.512 112.769C110.644 111.273 109.979 109.673 109.539 108.015L109.407 107.521L113.602 104.948C113.506 104.249 113.459 103.604 113.459 102.984C113.459 102.366 113.506 101.719 113.602 101.02L109.407 98.4477L109.539 97.954C109.979 96.2957 110.644 94.6959 111.512 93.1999L111.769 92.7584L116.549 93.9034C117.35 92.8582 118.282 91.9269 119.328 91.1251L118.46 87.5074C118.372 87.1393 118.599 86.7696 118.966 86.6814L118.969 86.6806C119.337 86.5925 119.707 86.8195 119.795 87.1869L120.874 91.6937L120.497 91.9651C119.299 92.8278 118.248 93.8785 117.386 95.0766L117.117 95.4502L112.449 94.3317C111.844 95.4432 111.36 96.6116 111.002 97.8159L115.098 100.328L115.024 100.783C114.893 101.587 114.829 102.307 114.829 102.983C114.829 103.661 114.893 104.38 115.024 105.184L115.098 105.638L111.001 108.152C111.358 109.357 111.843 110.524 112.448 111.636L117.116 110.517L117.385 110.891C117.639 111.244 117.911 111.586 118.198 111.914C118.437 112.187 118.431 112.595 118.169 112.847L118.144 112.871C117.87 113.139 117.428 113.117 117.175 112.829ZM145.05 113.212L143.288 112.79C142.919 112.701 142.692 112.331 142.78 111.962C142.868 111.594 143.238 111.366 143.607 111.454L144.369 111.637C144.973 110.525 145.458 109.357 145.816 108.152L141.718 105.639L141.792 105.185C141.923 104.381 141.987 103.661 141.987 102.984C141.987 102.307 141.923 101.588 141.792 100.784L141.718 100.329L145.815 97.8167C145.458 96.6116 144.972 95.4439 144.368 94.3324L139.7 95.451L139.43 95.0773C138.569 93.8793 137.518 92.8286 136.32 91.9659L135.942 91.6945L137.061 87.0262C135.949 86.4217 134.781 85.9365 133.577 85.5785L131.063 89.6758L130.609 89.6025C129.151 89.3662 127.664 89.3662 126.206 89.6025L125.752 89.6758L123.239 85.5793C123.083 85.6253 122.927 85.6744 122.771 85.7251C122.423 85.839 122.049 85.6518 121.923 85.3086C121.791 84.9475 121.979 84.5403 122.344 84.421C122.686 84.3087 123.032 84.2065 123.376 84.1152L123.87 83.9834L126.443 88.179C127.844 87.9848 128.971 87.9848 130.371 88.179L132.944 83.9834L133.438 84.1144C135.097 84.5559 136.697 85.2205 138.193 86.0878L138.634 86.3445L137.488 91.1259C138.533 91.9277 139.466 92.859 140.267 93.9042L145.047 92.7592L145.304 93.2007C146.172 94.6967 146.837 96.2965 147.277 97.9548L147.408 98.4485L143.213 101.021C143.31 101.72 143.357 102.366 143.357 102.985C143.357 103.604 143.309 104.25 143.213 104.949L147.408 107.522L147.277 108.016C146.837 109.674 146.172 111.274 145.304 112.77L145.05 113.212ZM128.217 109.668C124.732 109.57 121.826 106.665 121.726 103.18C121.625 99.6676 124.25 96.7341 127.638 96.3433C128.047 96.2957 128.41 96.6163 128.41 97.0289C128.41 97.3752 128.152 97.6662 127.808 97.7052C124.82 98.0437 122.576 100.869 123.202 104.054C123.608 106.123 125.275 107.79 127.344 108.194C130.74 108.858 133.724 106.263 133.724 102.984C133.724 101.887 133.385 100.824 132.762 99.9344C132.566 99.6536 132.619 99.2698 132.876 99.0429C133.184 98.7706 133.665 98.8276 133.899 99.1653C134.676 100.281 135.097 101.611 135.097 102.984C135.095 106.735 131.992 109.774 128.217 109.668Z" fill="#FFC253"/>
<path d="M84.485 179.082L82.8228 176.372C81.9227 176.497 81.1856 176.497 80.2854 176.372L78.6233 179.082L78.3042 178.997C77.2325 178.712 76.199 178.283 75.2326 177.722L74.9471 177.556L75.6522 174.614C75.7092 174.376 75.9486 174.228 76.1865 174.286C76.4244 174.343 76.5711 174.582 76.5141 174.82L75.9642 177.115C76.6826 177.506 77.4369 177.819 78.2153 178.05L79.8385 175.403L80.1326 175.451C81.074 175.605 82.0342 175.605 82.9757 175.451L83.2697 175.403L84.8937 178.05C85.6721 177.819 86.4264 177.506 87.1448 177.115L86.4217 174.099L86.6635 173.926C87.3226 173.452 87.9099 172.892 88.4146 172.259C88.5644 172.071 88.8311 172.026 89.0261 172.167C89.2281 172.313 89.2757 172.6 89.1213 172.795C88.6252 173.421 88.0558 173.982 87.4217 174.468L88.1619 177.556L87.8764 177.722C86.91 178.283 85.8765 178.712 84.8048 178.997L84.485 179.082ZM74.2958 173.167C74.1562 173.007 74.0213 172.843 73.8918 172.674L70.803 173.414L70.6376 173.128C70.0768 172.162 69.6478 171.128 69.3631 170.057L69.2781 169.738L71.9878 168.076C71.9254 167.624 71.895 167.207 71.895 166.807C71.895 166.407 71.9254 165.989 71.9878 165.537L69.2781 163.875L69.3631 163.556C69.6478 162.485 70.0768 161.452 70.6376 160.485L70.803 160.199L73.8918 160.939C74.4089 160.264 75.0111 159.662 75.6866 159.145L75.1265 156.808C75.0696 156.57 75.2162 156.331 75.4533 156.274L75.4549 156.273C75.6928 156.216 75.9315 156.363 75.9884 156.601L76.6857 159.513L76.4416 159.688C75.6678 160.245 74.9892 160.924 74.4323 161.698L74.2584 161.94L71.2421 161.218C70.8521 161.936 70.5386 162.69 70.3077 163.469L72.9542 165.092L72.9066 165.386C72.8216 165.906 72.7811 166.37 72.7811 166.808C72.7811 167.246 72.8224 167.711 72.9066 168.23L72.955 168.523L70.3085 170.147C70.5393 170.926 70.8529 171.68 71.2429 172.398L74.2592 171.676L74.4331 171.918C74.5969 172.146 74.7724 172.367 74.958 172.579C75.1125 172.756 75.1078 173.019 74.9393 173.181L74.9229 173.197C74.7443 173.366 74.4596 173.352 74.2958 173.167ZM92.3037 173.413L91.1649 173.141C90.927 173.084 90.7796 172.844 90.8365 172.607C90.8934 172.369 91.1329 172.222 91.3708 172.279L91.863 172.397C92.253 171.678 92.5665 170.924 92.7974 170.146L90.1509 168.522L90.1992 168.228C90.2835 167.71 90.3248 167.244 90.3248 166.807C90.3248 166.369 90.2835 165.904 90.1992 165.385L90.1517 165.091L92.7982 163.467C92.5673 162.689 92.2538 161.935 91.8638 161.216L88.8475 161.939L88.6736 161.697C88.1166 160.923 87.438 160.244 86.6643 159.687L86.4201 159.511L87.1432 156.495C86.4248 156.104 85.6706 155.791 84.8921 155.56L83.2689 158.206L82.9757 158.159C82.0342 158.006 81.074 158.006 80.1318 158.159L79.8385 158.206L78.2153 155.56C78.1147 155.589 78.0133 155.621 77.9135 155.654C77.6888 155.727 77.447 155.606 77.3659 155.385C77.2801 155.152 77.4018 154.889 77.6373 154.812C77.8589 154.739 78.0819 154.673 78.3035 154.614L78.6233 154.529L80.2854 157.24C81.1902 157.114 81.918 157.114 82.8228 157.24L84.485 154.529L84.804 154.614C85.8749 154.9 86.9084 155.329 87.8756 155.889L88.1611 156.055L87.4209 159.144C88.0964 159.662 88.6977 160.263 89.2157 160.939L92.3045 160.198L92.4698 160.484C93.0306 161.45 93.4596 162.484 93.7443 163.555L93.8294 163.874L91.1196 165.537C91.182 165.988 91.2125 166.406 91.2125 166.806C91.2125 167.206 91.182 167.623 91.1196 168.075L93.8294 169.737L93.7443 170.056C93.4596 171.128 93.0306 172.161 92.4698 173.128L92.3037 173.413ZM81.4297 171.124C79.1778 171.061 77.3012 169.184 77.2364 166.932C77.1709 164.663 78.8666 162.768 81.0553 162.515C81.3197 162.485 81.5537 162.692 81.5537 162.958C81.5537 163.182 81.3868 163.37 81.1645 163.395C79.2348 163.613 77.7848 165.438 78.1888 167.497C78.4509 168.833 79.5281 169.91 80.865 170.171C83.0583 170.6 84.9865 168.924 84.9865 166.806C84.9865 166.097 84.7681 165.41 84.3656 164.835C84.2385 164.654 84.2728 164.406 84.4389 164.259C84.6386 164.083 84.9483 164.12 85.1004 164.339C85.6019 165.059 85.8741 165.918 85.8741 166.806C85.8726 169.229 83.8672 171.193 81.4297 171.124Z" fill="#FFC253"/>
<path d="M195 333.073C278.524 333.073 346.233 329.118 346.233 324.241C346.233 319.363 278.524 315.409 195 315.409C111.476 315.409 43.7666 319.363 43.7666 324.241C43.7666 329.118 111.476 333.073 195 333.073Z" fill="#F5F5F5"/>
<path d="M283.491 113.745H258.093L240.129 319.079H265.527C272.75 319.079 279.139 313.204 279.771 305.981L295.444 126.844C296.075 119.621 290.714 113.745 283.491 113.745Z" fill="#0560FA"/>
<path d="M278.309 113.745H192.353C185.131 113.745 178.741 119.621 178.109 126.844L162.437 305.981C161.805 313.204 167.166 319.079 174.389 319.079H260.344C267.567 319.079 273.957 313.204 274.589 305.981L290.261 126.844C290.893 119.621 285.531 113.745 278.309 113.745Z" fill="#0560FA"/>
<path opacity="0.3" d="M278.309 113.745H192.353C185.131 113.745 178.741 119.621 178.109 126.844L162.437 305.981C161.805 313.204 167.166 319.079 174.389 319.079H260.344C267.567 319.079 273.957 313.204 274.589 305.981L290.261 126.844C290.893 119.621 285.531 113.745 278.309 113.745Z" fill="white"/>
<path opacity="0.4" d="M277.941 117.941H255.279C253.942 117.941 252.687 118.819 252.192 120.1C250.36 124.834 245.72 128.077 240.778 128.077H227.377C222.435 128.077 218.362 124.833 217.358 120.1C217.086 118.819 215.985 117.942 214.648 117.942H191.986C187.07 117.942 182.736 121.927 182.305 126.844L166.633 305.981C166.203 310.897 169.839 314.882 174.756 314.882H260.711C265.627 314.882 269.961 310.897 270.392 305.981L286.064 126.844C286.494 121.927 282.858 117.941 277.941 117.941Z" fill="white"/>
<path d="M256.529 215.247H196.372C194.588 215.247 193.269 213.801 193.425 212.018L193.726 208.576C193.882 206.792 195.455 205.347 197.239 205.347H257.395C259.179 205.347 260.498 206.793 260.342 208.576L260.041 212.018C259.885 213.801 258.313 215.247 256.529 215.247Z" fill="white"/>
<path d="M255.229 230.098H195.073C193.289 230.098 191.97 228.652 192.126 226.869L192.427 223.427C192.583 221.643 194.155 220.198 195.939 220.198H256.096C257.88 220.198 259.199 221.644 259.043 223.427L258.742 226.869C258.586 228.652 257.013 230.098 255.229 230.098Z" fill="white"/>
<path opacity="0.1" d="M238.251 121.297C238.078 123.275 236.335 124.878 234.357 124.878C232.378 124.878 230.916 123.275 231.089 121.297C231.262 119.319 233.006 117.716 234.984 117.716C236.961 117.716 238.424 119.319 238.251 121.297Z" fill="black"/>
<path opacity="0.1" d="M236.626 121.297C236.532 122.377 235.579 123.253 234.498 123.253C233.418 123.253 232.619 122.377 232.713 121.297C232.807 120.217 233.76 119.341 234.841 119.341C235.922 119.341 236.721 120.217 236.626 121.297Z" fill="black"/>
<g opacity="0.8">
<path d="M267.36 127.271C266.78 127.271 266.351 126.801 266.402 126.222L266.569 124.303C266.62 123.724 267.131 123.254 267.711 123.254C268.29 123.254 268.719 123.724 268.668 124.303L268.501 126.222C268.45 126.801 267.939 127.271 267.36 127.271Z" fill="white"/>
<path d="M275.754 127.27C275.174 127.27 274.745 126.801 274.796 126.221L275.19 121.72C275.241 121.14 275.752 120.671 276.331 120.671C276.911 120.671 277.34 121.14 277.289 121.72L276.895 126.221C276.844 126.801 276.333 127.27 275.754 127.27Z" fill="white"/>
<path d="M271.557 127.27C270.977 127.27 270.548 126.801 270.599 126.221L270.88 123.012C270.931 122.432 271.441 121.962 272.021 121.962C272.601 121.962 273.03 122.432 272.979 123.012L272.698 126.221C272.647 126.801 272.136 127.27 271.557 127.27Z" fill="white"/>
</g>
<g opacity="0.8">
<path d="M195.495 127.271H190.226C189.898 127.271 189.655 127.005 189.684 126.676L189.931 123.847C189.96 123.519 190.25 123.253 190.577 123.253H195.846C196.175 123.253 196.417 123.519 196.388 123.847L196.141 126.676C196.112 127.005 195.824 127.271 195.495 127.271Z" fill="white"/>
<path d="M197.938 126.503C197.61 126.503 197.367 126.237 197.396 125.909L197.509 124.615C197.538 124.286 197.827 124.021 198.155 124.021C198.483 124.021 198.726 124.286 198.697 124.615L198.584 125.909C198.556 126.237 198.267 126.503 197.938 126.503Z" fill="white"/>
</g>
<path d="M246.627 192.622C257.123 182.575 258.169 166.634 248.963 157.017C239.757 147.399 223.785 147.748 213.289 157.795C202.793 167.842 201.747 183.783 210.953 193.4C220.159 203.018 236.131 202.669 246.627 192.622Z" fill="white"/>
<path d="M230.038 174.236C223.42 174.236 217.834 176.754 217.356 182.225L216.824 188.298H240.793L241.324 182.225C241.802 176.754 236.658 174.236 230.038 174.236Z" fill="#0560FA"/>
<path d="M230.258 171.735C233.329 171.735 234.746 169.245 235.014 166.174C235.283 163.102 234.302 160.612 231.23 160.612C228.159 160.612 226.742 163.102 226.473 166.174C226.205 169.245 227.186 171.735 230.258 171.735Z" fill="#0560FA"/>
<path d="M253.783 210.12C252.148 210.12 250.768 210.741 250.651 212.093L250.52 213.593H256.44L256.571 212.093C256.689 210.741 255.418 210.12 253.783 210.12Z" fill="#0560FA"/>
<path d="M253.837 209.502C254.596 209.502 254.945 208.887 255.012 208.128C255.078 207.37 254.836 206.755 254.077 206.755C253.318 206.755 252.969 207.37 252.903 208.128C252.836 208.887 253.079 209.502 253.837 209.502Z" fill="#0560FA"/>
<path d="M235.555 244.95H212.148C209.414 244.95 207.392 242.734 207.631 239.999C207.871 237.265 210.281 235.048 213.015 235.048H236.422C239.156 235.048 241.178 237.265 240.939 239.999C240.699 242.734 238.289 244.95 235.555 244.95Z" fill="#0560FA"/>
<path d="M232.732 300.158H207.68C204.791 300.158 202.654 297.816 202.907 294.927L204.505 276.655C204.758 273.766 207.304 271.424 210.194 271.424H235.245C238.134 271.424 240.271 273.766 240.018 276.655L238.42 294.927C238.167 297.816 235.621 300.158 232.732 300.158Z" fill="#0560FA"/>
<g opacity="0.6">
<path d="M225.006 281.27C225.158 279.532 223.872 278.122 222.133 278.122C220.395 278.122 218.862 279.532 218.71 281.27C218.619 282.305 219.046 283.216 219.767 283.79L219.217 290.081C219.126 291.114 219.89 291.951 220.923 291.951C221.955 291.951 222.866 291.114 222.956 290.081L223.507 283.79C224.33 283.216 224.915 282.306 225.006 281.27Z" fill="white"/>
</g>
<path d="M235.467 275.227H232.239L233.03 266.187C233.505 260.754 229.472 256.334 224.039 256.334C218.607 256.334 213.8 260.754 213.325 266.187L212.534 275.227H209.306L210.097 266.187C210.728 258.974 217.109 253.106 224.322 253.106C231.534 253.106 236.889 258.974 236.258 266.187L235.467 275.227Z" fill="#0560FA"/>
<path d="M254.179 223.965L254.255 223.097C254.333 222.21 253.675 221.49 252.788 221.49C251.901 221.49 251.117 222.211 251.04 223.097L250.964 223.965C250.61 223.965 250.298 224.252 250.268 224.606L250.066 226.912C250.035 227.266 250.297 227.553 250.651 227.553H253.864C254.218 227.553 254.53 227.266 254.562 226.912L254.764 224.606C254.795 224.252 254.534 223.965 254.179 223.965ZM252.754 221.886C253.421 221.886 253.917 222.429 253.859 223.097L253.783 223.964H251.361L251.437 223.097C251.496 222.429 252.086 221.886 252.754 221.886Z" fill="#0560FA"/>
<path d="M205.801 224.888L204.679 224.656C204.546 224.629 204.478 224.49 204.533 224.359L205 223.254C205.101 223.017 204.812 222.841 204.631 223.029L203.783 223.903C203.682 224.007 203.521 224.007 203.439 223.903L202.744 223.029C202.595 222.842 202.276 223.017 202.334 223.254L202.608 224.359C202.641 224.49 202.548 224.629 202.41 224.656L201.248 224.888C200.998 224.938 200.968 225.288 201.209 225.338L202.331 225.57C202.463 225.597 202.532 225.737 202.476 225.868L202.009 226.972C201.909 227.209 202.197 227.385 202.379 227.197L203.227 226.323C203.327 226.22 203.489 226.22 203.571 226.323L204.266 227.197C204.415 227.385 204.734 227.209 204.675 226.972L204.401 225.868C204.369 225.737 204.461 225.597 204.6 225.57L205.762 225.338C206.011 225.288 206.042 224.937 205.801 224.888Z" fill="#263238"/>
<path d="M213.182 224.888L212.06 224.656C211.928 224.629 211.859 224.49 211.914 224.359L212.382 223.254C212.482 223.017 212.194 222.841 212.012 223.029L211.164 223.903C211.063 224.007 210.903 224.007 210.82 223.903L210.125 223.029C209.976 222.842 209.657 223.017 209.716 223.254L209.989 224.359C210.022 224.49 209.929 224.629 209.791 224.656L208.629 224.888C208.379 224.938 208.349 225.288 208.589 225.338L209.711 225.57C209.844 225.597 209.912 225.737 209.857 225.868L209.39 226.972C209.289 227.209 209.578 227.385 209.759 227.197L210.607 226.323C210.708 226.22 210.868 226.22 210.951 226.323L211.646 227.197C211.795 227.385 212.114 227.209 212.056 226.972L211.782 225.868C211.749 225.737 211.843 225.597 211.98 225.57L213.142 225.338C213.393 225.288 213.423 224.937 213.182 224.888Z" fill="#263238"/>
<path d="M220.563 224.888L219.441 224.656C219.309 224.629 219.24 224.49 219.296 224.359L219.763 223.254C219.863 223.017 219.575 222.841 219.393 223.029L218.545 223.903C218.445 224.007 218.283 224.007 218.201 223.903L217.506 223.029C217.357 222.842 217.038 223.017 217.097 223.254L217.37 224.359C217.403 224.49 217.31 224.629 217.172 224.656L216.01 224.888C215.761 224.938 215.73 225.288 215.97 225.338L217.092 225.57C217.225 225.597 217.293 225.737 217.238 225.868L216.771 226.972C216.67 227.209 216.959 227.385 217.14 227.197L217.988 226.323C218.089 226.22 218.25 226.22 218.332 226.323L219.027 227.197C219.176 227.385 219.495 227.209 219.437 226.972L219.163 225.868C219.13 225.737 219.223 225.597 219.361 225.57L220.523 225.338C220.774 225.288 220.804 224.937 220.563 224.888Z" fill="#263238"/>
<path d="M227.945 224.888L226.823 224.656C226.691 224.629 226.622 224.49 226.678 224.359L227.145 223.254C227.245 223.017 226.957 222.841 226.775 223.029L225.927 223.903C225.827 224.007 225.665 224.007 225.583 223.903L224.888 223.029C224.739 222.842 224.42 223.017 224.479 223.254L224.752 224.359C224.785 224.49 224.692 224.629 224.554 224.656L223.392 224.888C223.143 224.938 223.112 225.288 223.353 225.338L224.475 225.57C224.607 225.597 224.676 225.737 224.621 225.868L224.153 226.972C224.053 227.209 224.341 227.385 224.523 227.197L225.371 226.323C225.472 226.22 225.633 226.22 225.715 226.323L226.41 227.197C226.559 227.385 226.878 227.209 226.819 226.972L226.546 225.868C226.513 225.737 226.606 225.597 226.744 225.57L227.906 225.338C228.155 225.288 228.186 224.937 227.945 224.888Z" fill="#263238"/>
<path d="M235.326 224.888L234.204 224.656C234.072 224.629 234.003 224.49 234.058 224.359L234.526 223.254C234.626 223.017 234.338 222.841 234.156 223.029L233.308 223.903C233.208 224.007 233.046 224.007 232.964 223.903L232.269 223.029C232.12 222.842 231.801 223.017 231.86 223.254L232.133 224.359C232.166 224.49 232.073 224.629 231.935 224.656L230.773 224.888C230.524 224.938 230.493 225.288 230.733 225.338L231.855 225.57C231.988 225.597 232.056 225.737 232.001 225.868L231.534 226.972C231.434 227.209 231.722 227.385 231.903 227.197L232.751 226.323C232.852 226.22 233.012 226.22 233.095 226.323L233.79 227.197C233.939 227.385 234.258 227.209 234.2 226.972L233.926 225.868C233.893 225.737 233.987 225.597 234.124 225.57L235.286 225.338C235.536 225.288 235.567 224.937 235.326 224.888Z" fill="#263238"/>
<path d="M242.707 224.888L241.585 224.656C241.453 224.629 241.384 224.49 241.44 224.359L241.907 223.254C242.007 223.017 241.719 222.841 241.537 223.029L240.689 223.903C240.589 224.007 240.428 224.007 240.345 223.903L239.65 223.029C239.501 222.842 239.182 223.017 239.241 223.254L239.515 224.359C239.547 224.49 239.454 224.629 239.316 224.656L238.154 224.888C237.905 224.938 237.874 225.288 238.114 225.338L239.236 225.57C239.369 225.597 239.437 225.737 239.382 225.868L238.915 226.972C238.814 227.209 239.103 227.385 239.284 227.197L240.132 226.323C240.233 226.22 240.394 226.22 240.476 226.323L241.171 227.197C241.32 227.385 241.639 227.209 241.581 226.972L241.307 225.868C241.274 225.737 241.367 225.597 241.505 225.57L242.667 225.338C242.917 225.288 242.948 224.937 242.707 224.888Z" fill="#263238"/>
<path d="M224.915 208.737H211.056C210.195 208.737 209.436 209.435 209.361 210.297C209.285 211.158 209.922 211.856 210.783 211.856H224.642C225.503 211.856 226.262 211.158 226.338 210.297C226.414 209.435 225.776 208.737 224.915 208.737Z" fill="#263238"/>
<path d="M238.984 208.737H230.942C230.081 208.737 229.322 209.435 229.247 210.297C229.171 211.158 229.808 211.856 230.669 211.856H238.711C239.572 211.856 240.331 211.158 240.407 210.297C240.482 209.435 239.845 208.737 238.984 208.737Z" fill="#263238"/>
<path d="M249.601 279.446C244.376 281.533 239.795 284.576 236.659 288.037C234.821 286.472 232.207 285.386 229.073 284.889L228.706 284.831L228.545 286.671L228.751 286.748C231.843 287.916 234.36 289.989 236.03 292.742L236.292 293.175L236.583 292.711C239.796 287.566 244.482 283.256 249.777 280.574L249.956 280.483L250.063 279.26L249.601 279.446Z" fill="#263238"/>
<path opacity="0.2" d="M179.903 125.872C178.929 127.586 178.286 129.498 178.108 131.523L166.492 264.296H202.432L209.654 236.611L207.277 208.926L214.498 181.242L212.122 153.557L219.343 125.873H179.903V125.872Z" fill="black"/>
<path d="M209.002 145.757L216.222 118.072H125.333L118.112 145.757L120.49 173.442L113.268 201.126L115.645 228.812L108.424 256.496H199.313L206.534 228.812L204.157 201.126L211.378 173.442L209.002 145.757Z" fill="#0560FA"/>
<path opacity="0.7" d="M209.002 145.757L216.222 118.072H125.333L118.112 145.757L120.49 173.442L113.268 201.126L115.645 228.812L108.424 256.496H199.313L206.534 228.812L204.157 201.126L211.378 173.442L209.002 145.757Z" fill="white"/>
<path opacity="0.5" d="M209.001 145.757H118.112L125.334 118.072H216.222L209.001 145.757Z" fill="white"/>
<path opacity="0.5" d="M204.157 201.126H113.268L120.49 173.441H211.378L204.157 201.126Z" fill="white"/>
<path opacity="0.5" d="M199.313 256.496H108.424L115.645 228.812H206.534L199.313 256.496Z" fill="white"/>
<path opacity="0.2" d="M196.839 157.326C196.058 157.57 195.058 157.717 193.969 157.717C192.364 157.717 190.954 157.4 190.152 156.921C189.932 156.79 189.69 156.724 189.449 156.724C189.224 156.724 189 156.787 188.793 156.9C188.777 156.909 188.76 156.912 188.745 156.921C188.736 156.927 188.726 156.931 188.717 156.936C188.42 157.109 188.045 157.262 187.609 157.384C186.859 157.594 185.932 157.718 184.929 157.718C184.657 157.718 184.39 157.708 184.131 157.691C183.353 157.638 182.644 157.51 182.059 157.328C181.957 157.296 181.854 157.277 181.753 157.27C181.046 157.223 180.41 157.766 180.41 158.517V159.362H145.083C142.349 159.362 140.132 161.578 140.132 164.313V169.302C140.132 172.036 142.349 174.252 145.083 174.252H185.274C185.363 174.252 185.449 174.244 185.537 174.239C185.971 174.598 186.422 174.956 186.9 175.319C187.473 175.752 188.076 176.192 188.708 176.651C189.148 176.97 189.751 176.97 190.191 176.651C195.245 172.986 198.49 170.458 198.49 163.512V158.517C198.489 157.659 197.658 157.07 196.839 157.326Z" fill="black"/>
<path d="M184.506 171.503H144.315C141.581 171.503 139.364 169.287 139.364 166.552V161.563C139.364 158.829 141.58 156.612 144.315 156.612H184.506C187.24 156.612 189.456 158.828 189.456 161.563V166.552C189.456 169.286 187.24 171.503 184.506 171.503Z" fill="#0560FA"/>
<path d="M193.201 154.968C191.597 154.968 190.187 154.651 189.385 154.173C188.944 153.91 188.418 153.91 187.977 154.173C187.176 154.651 185.766 154.968 184.161 154.968C183.071 154.968 182.071 154.822 181.291 154.578C180.472 154.322 179.641 154.91 179.641 155.768V160.762C179.641 167.708 182.886 170.236 187.939 173.901C188.379 174.22 188.983 174.22 189.423 173.901C194.476 170.236 197.721 167.708 197.721 160.762V155.768C197.721 154.91 196.891 154.322 196.072 154.578C195.291 154.822 194.292 154.968 193.201 154.968Z" fill="#0560FA"/>
<path opacity="0.3" d="M193.201 154.968C191.597 154.968 190.187 154.651 189.385 154.173C188.944 153.91 188.418 153.91 187.977 154.173C187.176 154.651 185.766 154.968 184.161 154.968C183.071 154.968 182.071 154.822 181.291 154.578C180.472 154.322 179.641 154.91 179.641 155.768V160.762C179.641 167.708 182.886 170.236 187.939 173.901C188.379 174.22 188.983 174.22 189.423 173.901C194.476 170.236 197.721 167.708 197.721 160.762V155.768C197.721 154.91 196.891 154.322 196.072 154.578C195.291 154.822 194.292 154.968 193.201 154.968Z" fill="white"/>
<path opacity="0.2" d="M187.977 154.172C187.176 154.651 185.766 154.968 184.161 154.968C183.071 154.968 182.071 154.821 181.291 154.578C180.472 154.322 179.641 154.91 179.641 155.767V160.762C179.641 167.708 182.886 170.236 187.939 173.901C188.159 174.06 188.42 174.14 188.681 174.14V153.975C188.439 153.975 188.197 154.041 187.977 154.172Z" fill="white"/>
<path d="M195.925 159.398C192.659 160.749 189.864 162.72 188.031 164.962C186.751 163.949 184.997 163.245 182.939 162.923L182.698 162.886V164.078L182.836 164.128C184.905 164.884 186.652 166.227 187.89 168.01L188.084 168.29L188.246 167.989C190.036 164.657 192.827 161.866 196.104 160.129L196.215 160.07V159.278L195.925 159.398Z" fill="#263238"/>
<path d="M214.618 125.857H211.169C209.257 125.857 207.843 124.307 208.009 122.395L208.311 118.946C208.479 117.034 210.165 115.484 212.077 115.484H215.526C217.438 115.484 218.852 117.035 218.685 118.946L218.383 122.395C218.216 124.307 216.53 125.857 214.618 125.857Z" fill="#0560FA"/>
<path d="M216.051 118.939L215.302 118.119L213.419 119.85L211.839 118.119L210.946 118.939L212.526 120.671L210.644 122.402L211.392 123.223L213.275 121.491L214.856 123.223L215.748 122.402L214.168 120.671L216.051 118.939Z" fill="white"/>
<path d="M137.57 155.605C139.569 157.779 141.48 160.031 143.366 162.304C145.254 164.574 147.096 166.885 148.915 169.217C148.994 169.318 148.962 169.277 148.981 169.307C148.989 169.321 148.991 169.342 149.002 169.353C149.022 169.376 149.033 169.413 149.057 169.434C149.093 169.491 149.145 169.533 149.198 169.587C149.308 169.686 149.46 169.762 149.628 169.793C149.712 169.806 149.8 169.818 149.89 169.809C149.938 169.815 149.981 169.8 150.031 169.799C150.058 169.799 150.077 169.785 150.103 169.782C150.143 169.765 150.118 169.8 150.226 169.736L152.18 168.677C154.8 167.289 157.442 165.933 160.175 164.715L162.458 167.544C160.257 169.569 157.965 172.103 155.651 173.959L153.904 175.333C153.86 175.373 153.672 175.497 153.554 175.575C153.419 175.662 153.287 175.755 153.144 175.832C152.861 175.988 152.576 176.144 152.272 176.264C151.673 176.523 151.034 176.688 150.386 176.787C149.085 176.981 147.734 176.85 146.473 176.398C145.844 176.172 145.235 175.87 144.681 175.485C144.397 175.301 144.137 175.085 143.878 174.867C143.748 174.759 143.632 174.638 143.51 174.52L143.199 174.206C141.136 172.089 139.094 169.952 137.099 167.774C135.102 165.598 133.129 163.402 131.244 161.127L137.57 155.605Z" fill="#B55B52"/>
<path d="M159.112 166.438L160.93 160.598L165.717 162.983C165.717 162.983 165.019 167.244 161.535 167.983L159.112 166.438Z" fill="#B55B52"/>
<path d="M162.851 158.978L167.167 160.166L165.717 162.982L160.931 160.597L162.851 158.978Z" fill="#B55B52"/>
<path d="M112.393 157.196C111.872 159.678 111.236 162.131 110.569 164.577C109.905 167.024 109.181 169.456 108.427 171.881L108.146 172.79L108.006 173.245C107.976 173.344 107.957 173.369 107.93 173.435C107.844 173.665 107.793 173.915 107.783 174.177C107.77 174.696 107.893 175.274 108.233 175.777C108.261 175.858 108.53 176.14 108.74 176.368L109.387 177.072L110.664 178.501C111.505 179.466 112.343 180.434 113.138 181.452L110.42 184.599C109.298 183.96 108.218 183.271 107.141 182.579L105.541 181.524L104.75 180.985C104.481 180.798 104.265 180.672 103.834 180.316C102.351 179.057 101.242 177.271 100.836 175.288C100.629 174.298 100.578 173.266 100.693 172.244C100.724 171.999 100.77 171.714 100.807 171.504L100.89 171.035L101.055 170.098C101.493 167.596 101.959 165.102 102.486 162.621C103.01 160.141 103.565 157.667 104.234 155.222L112.393 157.196Z" fill="#B55B52"/>
<path d="M110.468 181.23L113.686 179.584L115.105 185.054C115.105 185.054 112.523 186.044 110.524 184.773L110.468 181.23Z" fill="#B55B52"/>
<path d="M118.133 177.834L118.278 182.852L114.685 185.202L113.438 179.69L118.133 177.834Z" fill="#B55B52"/>
<path d="M128.655 131.405C128.734 131.792 129.002 132.064 129.255 132.012C129.507 131.961 129.648 131.606 129.57 131.219C129.491 130.832 129.223 130.561 128.97 130.612C128.718 130.664 128.577 131.019 128.655 131.405Z" fill="#263238"/>
<path d="M128.967 132.071C128.967 132.071 130.299 134.122 131.485 135.001C130.931 135.779 129.709 135.724 129.709 135.724L128.967 132.071Z" fill="#A02724"/>
<path d="M126.803 129.546C126.747 129.546 126.69 129.526 126.645 129.485C126.552 129.398 126.545 129.251 126.633 129.157C127.503 128.216 128.558 128.383 128.604 128.39C128.73 128.412 128.815 128.532 128.793 128.658C128.772 128.783 128.651 128.868 128.527 128.847C128.492 128.842 127.667 128.721 126.974 129.471C126.928 129.521 126.865 129.546 126.803 129.546Z" fill="#263238"/>
<path d="M117.406 136.843C118.267 140.421 119.126 146.977 116.055 149.364C116.055 149.364 117.254 152.993 125.411 152.993C134.379 152.993 129.697 150.655 129.697 150.655C124.802 149.703 124.928 145.451 125.781 142.671L117.406 136.843Z" fill="#B55B52"/>
<path d="M115.099 150.028C114.565 149.033 113.976 147.896 115.193 147.539C116.533 147.147 125.137 146.42 127.664 147.156C126.887 148.538 128.202 150.236 128.202 150.236L115.099 150.028Z" fill="#263238"/>
<path d="M122.223 317.397H127.851L128.411 306.07H122.784L122.223 317.397Z" fill="#B55B52"/>
<path d="M86.512 315.836L92.2114 316.137L95.6754 304.98L89.9752 304.678L86.512 315.836Z" fill="#B55B52"/>
<path d="M92.0376 315.687L86.6673 314.524C86.4723 314.482 86.2734 314.581 86.1899 314.762L84.3257 318.807C84.1323 319.226 84.3881 319.719 84.8413 319.808C86.7227 320.182 87.6579 320.269 90.019 320.78C91.4721 321.095 94.7512 321.894 96.7582 322.328C98.7206 322.754 99.4562 320.836 98.6738 320.478C95.1654 318.875 93.6998 317.464 92.7497 316.149C92.5789 315.912 92.3239 315.749 92.0376 315.687Z" fill="#263238"/>
<path d="M127.553 316.831H122.212C122.012 316.831 121.839 316.969 121.795 317.164L120.829 321.511C120.729 321.962 121.071 322.389 121.533 322.381C123.459 322.348 126.243 322.235 128.665 322.235C131.496 322.235 133.942 322.39 137.262 322.39C139.27 322.39 139.827 320.36 138.987 320.176C135.161 319.339 132.037 319.249 128.73 317.211C128.372 316.99 127.975 316.831 127.553 316.831Z" fill="#263238"/>
<path d="M105.865 151.017C101.618 153.037 100.464 165.279 100.464 165.279L110.97 170.133C110.97 170.133 113.578 166.292 113.778 160.252C113.987 153.923 110.208 148.952 105.865 151.017Z" fill="#263238"/>
<path opacity="0.4" d="M111.565 158.567C109.668 161.511 109.847 166.067 110.504 169.917L110.968 170.135C110.968 170.135 113.579 166.289 113.779 160.25C113.791 159.873 113.789 159.497 113.776 159.132L111.565 158.567Z" fill="black"/>
<path d="M135.184 150.722C135.184 150.722 140.39 156.601 135.473 192.994C127.592 192.994 113.15 192.994 109.315 192.994C109.134 188.978 111.658 169.39 107.784 150.47C107.784 150.47 112.268 149.57 116.541 149.364C119.884 149.203 124.723 149.096 127.661 149.364C131.535 149.718 135.184 150.722 135.184 150.722Z" fill="#0560FA"/>
<path opacity="0.6" d="M135.184 150.722C135.184 150.722 140.39 156.601 135.473 192.994C127.592 192.994 113.15 192.994 109.315 192.994C109.134 188.978 111.658 169.39 107.784 150.47C107.784 150.47 112.268 149.57 116.541 149.364C119.884 149.203 124.723 149.096 127.661 149.364C131.535 149.718 135.184 150.722 135.184 150.722Z" fill="#FAFAFA"/>
<path opacity="0.2" d="M137.47 161.845L137.37 161.758L132.168 158.978C131.639 166.989 135.22 172.01 137.35 174.207C137.643 169.074 137.636 165.026 137.47 161.845Z" fill="black"/>
<path opacity="0.2" d="M128.41 306.073L128.122 311.912H122.492L122.78 306.073H128.41Z" fill="black"/>
<path opacity="0.2" d="M89.9736 304.681L95.6754 304.983L93.8869 310.734L88.1851 310.433L89.9736 304.681Z" fill="black"/>
<path d="M115.595 133.207C116.852 137.895 117.349 140.703 120.242 142.652C124.594 145.584 130.013 142.22 130.182 137.25C130.335 132.778 128.254 125.862 123.223 124.917C118.266 123.986 114.339 128.518 115.595 133.207Z" fill="#B55B52"/>
<path d="M126.194 192.994C126.194 192.994 120.643 230.369 117.597 244.371C114.26 259.705 96.3682 310.436 96.3682 310.436L87.6135 308.541C87.6135 308.541 98.833 267.198 101.633 245.761C102.726 237.396 104.045 223.911 105.714 212.668C107.33 201.78 109.315 192.994 109.315 192.994H126.194Z" fill="#263238"/>
<path d="M98.464 307.512C98.5015 307.52 96.8323 310.678 96.8323 310.678L86.9824 308.546L87.8131 305.585L98.464 307.512Z" fill="#0560FA"/>
<path opacity="0.6" d="M98.464 307.512C98.5015 307.52 96.8323 310.678 96.8323 310.678L86.9824 308.546L87.8131 305.585L98.464 307.512Z" fill="white"/>
<path opacity="0.6" d="M122.686 206.31C116.268 207.568 116.948 231.501 117.72 243.811C119.571 235.11 122.28 218.366 124.131 206.483C123.705 206.27 123.225 206.204 122.686 206.31Z" fill="black"/>
<path d="M135.473 192.994C135.473 192.994 138.084 229.56 137.552 244.474C136.999 259.987 129.644 310.781 129.644 310.781H121.358C121.358 310.781 121.054 260.893 120.686 245.658C120.284 229.049 118.279 192.994 118.279 192.994H135.473Z" fill="#263238"/>
<path d="M131.237 307.481C131.275 307.481 130.77 310.921 130.77 310.921H120.692L120.419 307.851L131.237 307.481Z" fill="#0560FA"/>
<path opacity="0.6" d="M131.237 307.481C131.275 307.481 130.77 310.921 130.77 310.921H120.692L120.419 307.851L131.237 307.481Z" fill="white"/>
<path d="M132.131 157.571C132.131 167.385 137.353 171.425 137.353 171.425L145.841 163.127C145.841 163.127 142.955 158.155 138.987 153.59C134.083 147.951 132.131 151.261 132.131 157.571Z" fill="#263238"/>
<path opacity="0.2" d="M129.885 139.026C129.67 139.628 129.104 140.647 127.684 141.054C125.612 141.646 125.585 143.402 125.585 143.402L125.61 143.435C127.587 142.782 129.233 141.149 129.885 139.026Z" fill="black"/>
<path d="M127.684 123.888C129.433 121.683 126.743 121.578 126.743 121.578C127.442 118.945 124.295 120.362 124.295 120.362C122.406 117.759 121.341 120.927 121.341 120.927C119.381 118.721 119.021 122.326 119.021 122.326C117.056 119.529 116.055 123.564 116.055 123.564C114.246 120.659 113.138 124.444 113.138 124.444C109.402 123.106 111.178 126.989 111.178 126.989C107.989 127.079 110.547 129.546 110.547 129.546C106.726 129.555 110.095 131.743 110.095 131.743C107.061 133.734 110.87 134.27 110.87 134.27C108.394 138.141 112.645 136.705 112.645 136.705C110.923 140.536 114.742 138.848 114.742 138.848C114.494 142.546 116.629 141.539 117.656 140.855C117.854 141.599 118.224 142.388 118.91 142.478C120.242 142.652 120.501 140.137 120.501 140.137C120.501 140.137 121.738 141.099 122.774 140.578C123.811 140.057 123.42 138.738 123.42 138.738C123.42 138.738 124.213 139.33 124.94 138.765C125.385 138.419 125.387 135.937 124.82 135.064L126.85 134.269C126.85 134.269 128.357 134.057 127.684 132.07C127.012 130.084 127.582 128.516 127.582 128.516C129.874 127.442 127.994 126.15 127.994 126.15C130.644 124.433 127.684 123.888 127.684 123.888Z" fill="#263238"/>
<path d="M123.571 133.403C123.891 134.634 124.699 135.692 125.545 136.321C126.818 137.268 127.768 136.336 127.677 134.896C127.596 133.6 126.836 131.545 125.432 131.161C124.05 130.781 123.207 131.996 123.571 133.403Z" fill="#B55B52"/>
</svg>
