<svg xmlns="http://www.w3.org/2000/svg" width="52" height="52" viewBox="0 0 52 52" fill="none">
  <g clip-path="url(#clip0_502_3893)">
    <path fill-rule="evenodd" clip-rule="evenodd" d="M13.4707 13.2099C20.5083 6.17226 31.9126 6.17226 38.9502 13.2099C45.9642 20.2239 45.9642 31.6281 38.9266 38.6657C31.9126 45.6797 20.5083 45.6797 13.4943 38.6657C6.45671 31.6281 6.45671 20.2239 13.4707 13.2099Z" fill="#FF4A31" fill-opacity="0.1"/>
    <path d="M22.1401 27.3614C22.2607 27.482 22.3287 27.6454 22.3292 27.816L22.3283 29.8079L24.3202 29.807C24.4888 29.8099 24.6494 29.8789 24.7676 29.9992C24.8857 30.1194 24.9519 30.2812 24.9519 30.4498C24.9519 30.6183 24.8857 30.7801 24.7676 30.9004C24.6494 31.0206 24.4888 31.0896 24.3202 31.0925L21.6856 31.0925C21.5165 31.088 21.3557 31.0188 21.2361 30.8992C21.1166 30.7796 21.0474 30.6188 21.0428 30.4498L21.0428 27.8151C21.043 27.688 21.0808 27.5639 21.1515 27.4583C21.2222 27.3528 21.3226 27.2705 21.44 27.222C21.5575 27.1735 21.6866 27.1608 21.8112 27.1856C21.9358 27.2104 22.0503 27.2716 22.1401 27.3614Z" fill="#FF4A31"/>
    <path d="M27.5486 24.5877C27.6691 24.7083 27.7369 24.8718 27.7369 25.0423C27.7369 25.2128 27.6691 25.3763 27.5486 25.4968L22.5483 30.4971C22.4278 30.6177 22.2642 30.6854 22.0937 30.6854C21.9233 30.6854 21.7597 30.6177 21.6392 30.4971C21.5186 30.3765 21.4509 30.213 21.4509 30.0425C21.4509 29.872 21.5186 29.7085 21.6392 29.588L26.6394 24.5877C26.76 24.4671 26.9235 24.3994 27.094 24.3994C27.2645 24.3994 27.428 24.4671 27.5486 24.5877ZM29.3668 22.7694C29.4874 22.89 29.5551 23.0535 29.5551 23.224C29.5551 23.3945 29.4874 23.558 29.3668 23.6786C29.2463 23.7991 29.0828 23.8669 28.9123 23.8669C28.7418 23.8669 28.5783 23.7991 28.4577 23.6786C28.3372 23.558 28.2694 23.3945 28.2694 23.224C28.2694 23.0535 28.3372 22.89 28.4577 22.7694C28.5783 22.6489 28.7418 22.5811 28.9123 22.5811C29.0828 22.5811 29.2463 22.6489 29.3668 22.7694ZM31.1851 20.9512C31.3057 21.0717 31.3734 21.2352 31.3734 21.4057C31.3734 21.5762 31.3057 21.7397 31.1851 21.8603C31.0646 21.9808 30.9011 22.0486 30.7306 22.0486C30.5601 22.0486 30.3965 21.9808 30.276 21.8603C30.1554 21.7397 30.0877 21.5762 30.0877 21.4057C30.0877 21.2352 30.1554 21.0717 30.276 20.9512C30.3965 20.8306 30.5601 20.7629 30.7306 20.7629C30.9011 20.7629 31.0646 20.8306 31.1851 20.9512Z" fill="#FF4A31"/>
  </g>
  <defs>
    <clipPath id="clip0_502_3893">
      <rect width="36" height="36" fill="white" transform="translate(26.2104 51.3818) rotate(-135)"/>
    </clipPath>
  </defs>
</svg>