<svg xmlns="http://www.w3.org/2000/svg" width="27" height="26" viewBox="0 0 27 26" fill="none">
  <g clip-path="url(#clip0_153_212)">
    <path d="M11.509 11.8756C11.5564 11.8754 11.6039 11.8753 11.6528 11.8751C11.8085 11.8746 11.9641 11.8745 12.1198 11.8745C12.229 11.8743 12.3382 11.8741 12.4475 11.8739C12.676 11.8736 12.9046 11.8735 13.1332 11.8736C13.4244 11.8736 13.7156 11.8729 14.0068 11.872C14.2323 11.8714 14.4579 11.8713 14.6834 11.8714C14.7907 11.8713 14.898 11.8711 15.0053 11.8707C16.3044 11.8664 17.4744 12.0125 18.4434 12.9659C18.4878 13.0107 18.5322 13.0555 18.5779 13.1017C18.6118 13.1345 18.6458 13.1673 18.6807 13.2011C19.4796 14.0307 19.601 15.1614 19.6017 16.2564C19.602 16.3334 19.6022 16.4103 19.6025 16.4873C19.6032 16.6951 19.6035 16.903 19.6037 17.1108C19.6039 17.2409 19.6041 17.3709 19.6043 17.5009C19.605 17.9084 19.6055 18.3159 19.6057 18.7234C19.6059 19.1927 19.6068 19.662 19.6083 20.1314C19.6094 20.495 19.6099 20.8587 19.61 21.2223C19.61 21.4392 19.6103 21.656 19.6112 21.8729C19.6121 22.0767 19.6122 22.2806 19.6117 22.4845C19.6117 22.5591 19.6119 22.6337 19.6124 22.7082C19.618 23.5843 19.618 23.5843 19.3238 23.8864C19.0325 24.0625 18.771 24.0853 18.44 24.0837C18.3961 24.0839 18.3521 24.0841 18.3069 24.0843C18.16 24.0848 18.0131 24.0846 17.8662 24.0844C17.7608 24.0847 17.6553 24.0849 17.5499 24.0852C17.2637 24.0859 16.9774 24.0859 16.6912 24.0858C16.4522 24.0857 16.2132 24.086 15.9742 24.0862C15.4102 24.0868 14.8463 24.0868 14.2824 24.0865C13.7008 24.0862 13.1192 24.0868 12.5376 24.0879C12.0381 24.0888 11.5386 24.0891 11.0391 24.089C10.7409 24.0889 10.4426 24.089 10.1444 24.0897C9.86388 24.0903 9.58337 24.0902 9.30286 24.0896C9.20001 24.0895 9.09717 24.0896 8.99432 24.09C8.85371 24.0905 8.71313 24.0901 8.57251 24.0895C8.53201 24.0899 8.49152 24.0902 8.44979 24.0906C8.12597 24.0875 7.83051 24.0347 7.59015 23.8007C7.43757 23.5484 7.39337 23.3215 7.39317 23.0289C7.39288 22.9633 7.3926 22.8976 7.3923 22.83C7.3925 22.7579 7.39271 22.6858 7.39292 22.6137C7.39279 22.5373 7.39261 22.4608 7.39238 22.3844C7.39192 22.1771 7.3921 21.9699 7.39242 21.7627C7.39268 21.5451 7.39244 21.3275 7.39228 21.11C7.3921 20.7442 7.39234 20.3785 7.39282 20.0127C7.39338 19.5914 7.3932 19.1701 7.39264 18.7488C7.39218 18.386 7.39211 18.0233 7.39238 17.6605C7.39254 17.4444 7.39256 17.2282 7.39222 17.012C7.39193 16.8083 7.39214 16.6045 7.39272 16.4008C7.39285 16.3266 7.39282 16.2524 7.39259 16.1781C7.38927 14.9787 7.62747 13.9088 8.48894 13.0331C8.5562 12.9665 8.5562 12.9665 8.62482 12.8986C8.65761 12.8647 8.69041 12.8308 8.7242 12.7959C9.46963 12.078 10.5112 11.8751 11.509 11.8756Z" fill="#3085FE"/>
    <path d="M16.7847 3.31052C17.7154 4.27081 18.0508 5.48885 18.0328 6.79716C18.0025 7.76837 17.6096 8.72834 16.9529 9.44553C16.9281 9.47682 16.9033 9.50811 16.8777 9.54034C16.2172 10.3729 15.0987 10.8717 14.0656 11.0082C12.8948 11.1323 11.7134 10.8544 10.7703 10.1311C10.6981 10.0722 10.6261 10.013 10.5545 9.95334C10.5238 9.92945 10.4931 9.90555 10.4614 9.88094C9.70946 9.27833 9.1106 8.18059 8.99015 7.22065C8.87263 5.90144 9.10101 4.67403 9.94966 3.62711C10.063 3.49728 10.1797 3.37304 10.3006 3.25021C10.3392 3.21094 10.3778 3.17166 10.4176 3.13119C12.2436 1.38302 15.0343 1.65943 16.7847 3.31052Z" fill="#3085FE"/>
    <path d="M20.7109 13.8633C21.0577 13.8581 21.4044 13.8546 21.7511 13.8521C21.8687 13.8511 21.9863 13.8497 22.1039 13.848C22.9379 13.8357 23.7225 13.8476 24.4783 14.2473C24.5114 14.2645 24.5445 14.2817 24.5787 14.2993C25.4214 14.7565 26.0254 15.5017 26.3477 16.4024C26.3609 16.4392 26.3741 16.4761 26.3877 16.514C26.5524 17.0631 26.523 17.6279 26.522 18.1958C26.5223 18.3108 26.5225 18.4259 26.5228 18.5409C26.5233 18.7812 26.5232 19.0215 26.5227 19.2617C26.5221 19.5685 26.5231 19.8752 26.5246 20.182C26.5255 20.4193 26.5255 20.6566 26.5252 20.8939C26.5252 21.007 26.5255 21.12 26.5261 21.2331C26.5303 22.0923 26.4631 22.741 25.8621 23.4006C25.8212 23.4373 25.7804 23.474 25.7383 23.5117C25.6849 23.562 25.6849 23.562 25.6304 23.6133C24.9841 24.0629 24.2748 24.086 23.5126 24.0802C23.4372 24.0801 23.3618 24.0799 23.2864 24.0798C23.0901 24.0794 22.8937 24.0784 22.6974 24.0773C22.4962 24.0763 22.2949 24.0758 22.0937 24.0753C21.7005 24.0742 21.3073 24.0725 20.9141 24.0703C20.9223 24.0109 20.9305 23.9515 20.939 23.8903C20.9638 23.691 20.9715 23.4956 20.972 23.2945C20.9721 23.2597 20.9723 23.2248 20.9724 23.1889C20.9729 23.0734 20.973 22.9578 20.973 22.8422C20.9733 22.7589 20.9735 22.6755 20.9738 22.5921C20.9745 22.3664 20.9748 22.1407 20.975 21.915C20.9752 21.7737 20.9754 21.6323 20.9756 21.491C20.9763 21.0477 20.9768 20.6045 20.977 20.1613C20.9772 19.6515 20.9781 19.1417 20.9796 18.6318C20.9807 18.2366 20.9812 17.8413 20.9812 17.446C20.9813 17.2105 20.9816 16.975 20.9825 16.7395C20.9833 16.5176 20.9834 16.2958 20.983 16.0739C20.983 15.9931 20.9832 15.9122 20.9837 15.8314C20.9868 15.3069 20.9334 14.8316 20.8125 14.3203C20.7923 14.2283 20.7722 14.1363 20.7522 14.0442C20.7386 13.9845 20.725 13.9248 20.7109 13.8633Z" fill="#3085FE"/>
    <path d="M5.07017 13.8505C5.18879 13.8515 5.30741 13.8525 5.42604 13.8533C5.71368 13.8555 6.0013 13.8589 6.28892 13.8632C6.26781 13.9505 6.26781 13.9505 6.24627 14.0395C6.22768 14.1172 6.20911 14.1949 6.19053 14.2726C6.18127 14.3108 6.17201 14.349 6.16246 14.3884C6.14896 14.4451 6.14896 14.4451 6.13519 14.5029C6.12282 14.5544 6.12282 14.5544 6.11021 14.6069C6.05279 14.8882 6.02866 15.1609 6.02857 15.4478C6.02849 15.4828 6.02841 15.5179 6.02833 15.554C6.02813 15.6706 6.02828 15.7871 6.02844 15.9037C6.02838 15.9876 6.02829 16.0715 6.02817 16.1555C6.02794 16.3829 6.02803 16.6102 6.02819 16.8376C6.02832 17.0759 6.0282 17.3142 6.02812 17.5525C6.02803 17.9527 6.02815 18.3529 6.02839 18.7531C6.02867 19.2152 6.02858 19.6774 6.0283 20.1395C6.02807 20.5368 6.02804 20.9341 6.02817 21.3314C6.02825 21.5684 6.02826 21.8055 6.02809 22.0425C6.02795 22.2655 6.02805 22.4884 6.02834 22.7114C6.02841 22.793 6.02839 22.8747 6.02828 22.9563C6.02814 23.0681 6.02832 23.1799 6.02857 23.2917C6.02859 23.3542 6.02861 23.4166 6.02863 23.481C6.0356 23.6807 6.05831 23.8724 6.0858 24.0702C5.65271 24.0726 5.21963 24.0744 4.78654 24.0755C4.58538 24.076 4.38422 24.0767 4.18306 24.0779C3.98847 24.079 3.79388 24.0796 3.59928 24.0799C3.52551 24.0801 3.45175 24.0804 3.37798 24.081C2.79184 24.0852 2.22375 24.0765 1.69639 23.7973C1.61008 23.7527 1.61008 23.7527 1.52203 23.7072C1.01661 23.4081 0.685745 22.9132 0.523411 22.3509C0.499126 22.2387 0.493051 22.1389 0.492385 22.0242C0.492022 21.981 0.491659 21.9379 0.491284 21.8934C0.491148 21.8464 0.491011 21.7994 0.490871 21.751C0.490537 21.7012 0.490203 21.6513 0.489859 21.6C0.488858 21.435 0.488265 21.2699 0.487759 21.1049C0.487552 21.0483 0.487345 20.9917 0.487132 20.9335C0.486072 20.6336 0.485346 20.3338 0.48487 20.0339C0.48431 19.7258 0.482566 19.4177 0.480545 19.1096C0.47921 18.8714 0.478791 18.6332 0.47861 18.395C0.478364 18.2816 0.477778 18.1681 0.476831 18.0546C0.467266 16.833 0.711307 15.8021 1.58833 14.9035C2.58821 13.9545 3.75574 13.8307 5.07017 13.8505Z" fill="#3085FE"/>
    <path d="M23.418 6.75089C24.1655 7.32367 24.6136 8.07029 24.8046 8.98527C24.9346 10.0145 24.6828 10.9554 24.0498 11.7782C23.4719 12.4373 22.6519 12.8894 21.7715 12.9577C20.8433 13.0061 19.9536 12.8059 19.2365 12.186C18.5254 11.5323 18.072 10.7182 18.0092 9.74223C17.9954 8.7548 18.3108 7.84532 18.9971 7.12223C20.2061 5.97473 22.0374 5.81841 23.418 6.75089Z" fill="#3085FE"/>
    <path d="M5.40751 6.13656C6.2906 6.10944 7.13394 6.39049 7.81188 6.96235C8.50004 7.6105 8.92817 8.40995 8.99195 9.35998C9.01869 10.4003 8.65989 11.2646 7.9555 12.0194C7.23655 12.7076 6.3416 12.9798 5.36546 12.9633C4.4945 12.928 3.71151 12.5382 3.09002 11.9338C2.43272 11.2111 2.13396 10.3342 2.16029 9.36632C2.21268 8.37008 2.68611 7.56312 3.40919 6.90185C3.98158 6.4271 4.672 6.18123 5.40751 6.13656Z" fill="#3085FE"/>
  </g>
  <defs>
    <clipPath id="clip0_153_212">
      <rect width="26" height="26" fill="white" transform="translate(0.5)"/>
    </clipPath>
  </defs>
</svg>